<?xml version="1.0" encoding="UTF-8" standalone="no"?>
<!-- Created with Inkscape (http://www.inkscape.org/) -->

<svg
   version="1.1"
   id="svg824"
   xml:space="preserve"
   width="204.58888"
   height="184.07524"
   viewBox="0 0 204.58888 184.07524"
   xmlns="http://www.w3.org/2000/svg"
   xmlns:svg="http://www.w3.org/2000/svg"><defs
     id="defs828" /><g
     id="g830"
     transform="matrix(1.3333333,0,0,1.3333333,0,8.6018808e-6)"><g
       id="g832"><path
         d="m 93.301,5.809 c 4.187,-2.813 6.894,-1.715 8.551,2.543 6.953,-5.161 18.871,8.101 14.5,17.55 l 0.253,0.543 c 5.551,1.43 6.223,12.778 6.586,17.078 0.293,3.473 -1.73,6.11 -1.933,9.075 -0.024,0.379 0.59,0.785 0.828,0.984 2.566,2.141 3.254,2.539 4.082,5.856 0.859,3.457 0.676,8.093 -1.559,11.14 -4.609,6.297 -7.992,3.848 -13.964,2.168 -0.598,0.813 -2.391,3.219 -2.473,4.094 18.117,9.301 14.668,8.176 7.074,25.609 -0.191,0.442 -1.566,3.539 -1.574,3.766 -0.004,0.215 0.453,0.43 0.598,0.512 3.277,1.906 25.859,10.75 32.484,16.507 6.598,5.731 6.687,14.821 6.687,14.821 -14.945,0 -153.441,0 -153.441,0 -0.082,-18.356 19.637,-21.235 40.527,-32.196 l -0.172,-0.464 C 40.18,103.289 32.711,92.934 32.621,90.375 32.449,85.5 44.422,79.109 44.52,77.879 43.652,76.738 42.781,75.59 42.023,74.375 c -0.859,-0.047 -4.128,3.43 -8.363,3.43 -10.609,0 -10.203,-12.664 -5.801,-19.258 -6.07,-12.207 1.024,-12.008 0.598,-15.172 -0.434,-3.227 -1.352,-5.676 -1.34,-9.109 0,0 -0.074,-1.848 0.195,-2.524 1.239,-3.113 3.868,-2.109 3.821,-5.918 -0.082,-6.476 5.453,-9.148 10.308,-11.722 0.918,-0.489 0.118,-6.024 5.2,-8.829 C 52.566,2 60.484,-0.758 66.305,3.738 71.551,1.148 78.363,0.383 84.148,0.023 c 4.297,-0.269 6.211,1.645 8.575,4.821 l 0.578,0.965"
         style="fill:#00618f;fill-opacity:1;fill-rule:nonzero;stroke:none"
         id="path834" /><path
         d="m 58.5,8.648 c 0.371,0 0.965,0.149 1.336,0.149 0.371,0 2.141,0.754 2.937,1.238 0.672,0.41 1.383,1.07 2.219,1.387 1.098,0.43 3.172,0.797 3.543,0.797 0.653,0 4.555,-0.746 4.613,-0.746 1.524,0 4.891,2.168 5.954,3.601 0.351,0.485 0.515,1.531 0.515,1.903 0,0.371 -0.148,1.414 -0.148,1.785 0,0.687 -0.895,1.785 -1.563,1.785 -0.816,0 -1.785,-3.168 -2.043,-3.445 -1.359,-1.528 -5.597,-3.696 -7.773,-3.696 -0.184,0 -1.563,0.094 -1.563,0.895 0,1.672 4.313,2.34 4.313,4.015 0,0.539 -0.891,0.891 -1.188,0.891 -1.023,0 -3.632,-2.16 -4.117,-2.348 -1.449,-0.574 -3.109,-0.925 -4.586,-1.222 -1.797,-0.039 -2.078,0.004 -2.219,0 -2.554,0.668 -4.648,2.988 -6.308,5.324 -0.418,0.59 -0.395,1.965 -0.766,1.965 -0.371,0 -1.859,-0.446 -2.23,-0.446 -3.16,0 -4.367,2.192 -4.367,4.981 0,0.781 -0.391,1.668 -0.911,2.281 -0.39,0.465 -1.488,1.067 -1.863,1.067 -1.074,0 -1.781,-0.817 -1.781,-1.414 0,-0.372 0.043,-0.668 0.148,-1.04 0.098,-0.359 0.926,-1.945 1.539,-2.722 2.641,-3.348 6.289,-6.324 10.25,-8.406 0.649,-0.336 1.696,-0.282 2.383,-0.598 0.371,-0.168 3.078,-1.977 3.078,-2.848 0,-0.375 -0.691,-0.972 -1.125,-1.117 0,0 -4.418,0.195 -4.8,0.125 -0.067,-0.059 -0.172,-0.199 -0.172,-0.57 0,-0.707 0.941,-1.098 1.359,-1.422 1.152,-0.883 4.145,-2.149 5.336,-2.149"
         style="fill:#ffffff;fill-opacity:1;fill-rule:nonzero;stroke:none"
         id="path836" /><path
         d="m 96.496,10.434 c 0.371,0 0.59,0.058 0.922,0.3 0.172,0.168 0.211,0.25 0.203,0.438 -0.008,0.172 -0.043,0.289 -0.203,0.39 -1.492,0.477 -5.012,5.204 -5.309,6.083 -0.304,0.894 -0.593,2.156 -0.593,2.531 0,0.613 0.277,1.262 0.816,1.262 0.371,0 1.641,-0.555 2.363,-0.704 1.34,-0.281 3.66,-0.632 4.032,-0.632 2.378,0 6.32,2.191 6.32,4.46 0,0.372 -0.012,0.883 -0.332,1.325 -0.305,0.425 -1.098,-0.766 -1.551,-0.996 -0.672,-0.34 -1.91,-0.625 -2.281,-0.625 -3.606,0 -4.035,2.379 -6.543,2.379 -1.117,0 -1.899,-0.067 -3.07,-1.516 -0.594,-0.727 -0.364,-2.004 -0.844,-2.988 -0.242,-0.5 -1.016,-0.879 -1.387,-1.325 -0.351,-0.425 -0.738,-1.07 -0.906,-1.664 -0.11,-0.425 -0.219,-1.007 -0.071,-1.625 0.528,-2.199 1.176,-3.523 2.883,-4.804 0.504,-0.383 4.379,-2.289 5.551,-2.289"
         style="fill:#ffffff;fill-opacity:1;fill-rule:nonzero;stroke:none"
         id="path838" /><path
         d="m 68.836,21.883 c 4.012,0 6.355,2.383 10.039,2.383 0.371,0 6.32,-0.598 6.691,-0.598 2.414,0 5.93,3.098 6.336,6.016 0.075,0.574 0.207,1.347 0.207,1.718 0,0.371 -0.742,4.539 -0.742,4.91 0,3.848 4.313,6.43 4.313,9.817 0,0.965 -0.492,2.641 -1.25,3.269 -0.516,-0.113 -1.625,-1.007 -1.981,-1.16 -1.152,-0.539 -3.465,-1.07 -3.836,-1.07 -3.679,0 -8.293,2.379 -10.32,4.293 -1.004,0.949 -1.203,3.832 -1.203,4.93 0,2.656 1.336,5.109 1.336,7.656 0,0.375 -0.449,5.234 -0.5,5.363 0.054,0.278 0.054,0.731 0.094,1.188 -0.043,0.16 -0.04,-0.004 -0.04,0.367 0,0.371 0.743,2.973 0.743,3.347 0,1.786 -1.094,3.196 -2.973,3.196 -0.895,0 -1.934,-0.742 -1.934,-1.637 0,-0.945 -0.746,-2.465 -1.3,-2.797 -0.243,-0.148 -0.411,-0.176 -0.782,-0.176 -0.371,0 -1.668,1.625 -2.597,2.231 -0.766,-0.399 -0.5,-1.305 -1.262,-1.305 -1.043,0 -1.047,1.211 -1.047,1.305 0,1.301 1.672,2.976 3.047,2.976 0.371,0 2.391,-0.933 2.762,-0.933 1.117,0 1.754,2.035 1.941,2.223 0.332,0.351 0.875,0.57 1.246,0.57 0.371,0 1.266,-0.992 1.637,-0.992 1.246,0 1.937,0.257 3.449,0.55 0.621,0.118 1.293,0.192 1.805,-0.675 0.32,-0.551 0.269,-0.598 0.578,-1 0.367,-0.317 0.582,-0.575 1.027,-0.739 0.465,-0.187 1.84,-1.961 1.84,-2.574 0,-3.031 -2.23,-2.082 -2.23,-5.41 v -2.27 c 0,-0.371 -0.895,-4.144 -0.895,-4.515 0,-1.32 2.383,-0.094 2.383,-1.637 0,-0.598 -2.531,-1.988 -2.531,-2.828 0,-1.059 2.379,-2.113 2.777,-2.227 0.387,0.512 0.199,0.332 0.199,0.817 0,1.41 0.551,3.051 2.578,3.664 0.168,0.051 0.84,0.129 1.215,0.129 0.371,0 1.199,-0.356 1.739,-0.785 0.89,-0.707 1.554,-2.606 1.351,-3.629 0,0 -0.117,-0.199 0.254,-0.199 0.895,0 1.934,1.171 1.934,1.562 0,1.133 -1.844,3.66 -2.883,3.883 -1.043,0.222 -2.071,0.351 -3.074,0.769 -0.278,0.375 0,0.52 0,0.52 0.699,0.437 1.199,0.312 1.199,0.926 0,0.371 -0.742,1.043 -0.742,1.414 0,1.097 0.796,1.336 1.187,1.336 1.301,0 4.449,-1.961 5.156,-3.524 0.317,-0.687 0.2,-2.125 0.2,-2.496 0,-0.633 0.781,-1.906 0.972,-2 0.535,-0.273 1.422,0.383 1.645,1.235 0.187,0.746 0.355,2.175 0.355,2.546 0,2.715 -1.469,4.719 -1.336,7.434 0.129,2.379 -0.148,4.02 -0.148,4.391 0,0.375 -0.375,2.047 -0.656,3.07 -0.11,0.406 -5.426,10.613 -7.469,10.613 h -1.766 c -0.371,0 -0.406,-0.262 -0.609,-0.469 -0.242,-0.242 -0.414,-0.796 -0.414,-1.242 0,-0.445 0.133,-0.886 0.004,-1.316 -0.149,-0.465 -0.692,-1.285 -1.063,-1.285 -1.527,0 -2.418,1.191 -3.273,1.191 -0.836,0 -2.34,-1.785 -3.867,-1.785 -1.879,0 -2.325,2.379 -3.645,2.379 -1.617,0 -1.785,-2.527 -3.867,-2.527 -1.766,0 -1.543,1.781 -3.641,1.781 -0.371,0 -1.703,-0.977 -2.074,-0.977 -1.488,0 -1.676,2.27 -1.789,2.531 0.262,0.11 0.367,0.54 0.738,0.54 0.371,0 1.528,-1.086 1.899,-1.086 0.375,0 2.148,1.785 2.738,1.8 0.668,0.02 3.105,-1.125 3.477,-1.125 0.371,0 1.976,0.774 2.347,0.774 1.617,0 3.11,-1.266 4.488,-1.266 1.094,0 2.973,0.762 2.973,1.934 0,2.136 -2.101,2.976 -3.496,2.976 -0.371,0 -4.387,-1.043 -4.758,-1.043 -0.781,0 -4.09,0.203 -4.09,1.489 0,0.89 2.211,1.507 2.602,1.488 0.801,-0.043 3.422,-0.598 3.793,-0.598 2.082,0 5.504,0.504 5.504,3.571 0,3.511 -3.625,4.906 -6.043,4.906 H 69.707 C 65.879,99.898 55.996,90.133 55.125,89.395 h -0.371 c 0.027,0.085 -0.121,0.011 -0.121,0.382 0,0.375 3.672,12.024 5.699,13.344 2.676,1.731 11.684,3.109 14.449,3.129 0.449,0 0.989,0.113 1.625,0.309 0.219,0.277 0.383,0.546 0.383,0.918 0,2.195 -6.914,10.632 -9.293,10.632 -1.058,0 -13.906,-30.859 -13.906,-31.23 0,-0.371 -0.793,-1.684 -1.149,-2.574 -0.222,-0.559 -0.5,-1.051 -0.746,-1.793 -0.136,-0.422 -1.425,-4.485 -1.683,-6.563 -0.129,-1.008 0.48,-2.961 -0.356,-3.199 -0.773,0.27 -1.363,2.23 -2.386,2.23 -0.372,0 -1.661,-0.625 -1.809,-0.828 -0.258,-0.336 -0.645,-1 -0.754,-1.613 -0.187,-1.023 -0.34,-2.914 -0.34,-3.285 0,-3.977 2.977,-1.734 3.274,-5.949 L 47.195,49.25 c 0,-3.363 2.512,-6.004 3.461,-9.758 0.168,-0.707 -0.039,-2.066 -0.039,-2.437 0,-8.067 4.082,-13.961 12.262,-14.539 1.914,-0.129 5.582,-0.633 5.957,-0.633"
         style="fill:#ffffff;fill-opacity:1;fill-rule:evenodd;stroke:none"
         id="path840" /><path
         d="m 100.215,27.984 c 0.371,0 1.918,0.598 2.844,0.836 3.761,0.969 5.296,5.422 6.039,8.297 0.09,0.332 0.199,0.75 0.199,1.121 0,0.375 -0.012,0.809 -0.176,1.434 0,0 -0.059,0.359 -0.43,0.359 -0.89,0 -1.695,-0.699 -2.734,-1.961 -1.301,-1.601 -1.973,-3.668 -3.18,-5.359 -0.707,-0.969 -1.75,-1.859 -2.617,-2.633 -0.265,-0.238 -1.168,-0.812 -1.211,-1.351 -0.023,-0.305 0.043,-0.465 0.16,-0.563 0.239,-0.191 0.735,-0.18 1.106,-0.18"
         style="fill:#ffffff;fill-opacity:1;fill-rule:nonzero;stroke:none"
         id="path842" /><path
         d="m 108.023,45.086 c 1.485,0 3.864,2.082 3.864,3.57 0,0.406 -0.418,0.965 -0.66,0.985 -2.676,0.277 -4.098,3.011 -4.098,4.89 0,2.063 1.383,3.664 3.668,4.711 0.48,0.223 1.254,0.305 1.625,0.305 0.371,0 1.512,-0.359 2.328,-0.824 1.32,-0.782 2,-3.258 3.652,-2.618 1.262,1.653 1.668,2.833 1.668,4.227 0,2.23 -4.965,3.047 -5.578,3.047 -2.344,0 -5.691,-1.438 -7.754,-3.895 -0.855,-1.019 -1.601,-2.328 -2.14,-3.492 -0.606,-1.316 -1.036,-2.969 -1.036,-3.914 0,-1.676 1.895,-6.992 4.461,-6.992"
         style="fill:#ffffff;fill-opacity:1;fill-rule:nonzero;stroke:none"
         id="path844" /><path
         d="m 60.508,47.316 c 1.195,0.149 1.336,0 1.488,0 1.195,0.149 2.672,0.231 3.75,0.789 1.859,0.95 4.633,2.68 6.215,4.594 0.258,0.317 0.816,2.613 0.816,3.321 0,0.371 -1.047,4.503 -1.043,5.722 0,0.879 0.743,4.313 0.743,4.688 0,0.761 0.097,2.031 -0.641,3.043 -0.652,-0.09 -2.926,-3.731 -2.926,-5.051 0,-1.953 1.785,-2.27 1.785,-4.91 0,-0.481 -0.093,-0.891 -0.597,-0.891 -0.371,0 -1.95,1.785 -2.325,1.781 0,0 -0.796,0.246 -1.187,-0.004 -0.168,-0.105 -0.356,-0.363 -0.356,-0.363 0.625,-1.027 1.786,-2.418 1.786,-3.273 0,-0.594 -1.571,-1.766 -1.993,-1.711 -0.902,0.293 -0.218,1.57 -0.293,2.168 -0.187,1.336 -1.953,3.187 -3.292,3.187 -0.649,0 -2.321,-0.73 -2.692,-1.121 -1.562,-1.656 -0.801,-1.89 -0.801,-3.344 0,-0.371 -0.148,-0.222 -0.129,-0.464 -0.093,0.019 -0.093,-0.129 -0.468,-0.129 -0.985,0 -1.934,1.562 -1.934,2.156 0,1.137 0.742,2.566 2.375,2.941 -0.484,1.035 -0.828,1.149 -1.555,1.149 -2.808,0 -2.472,-3.719 -3.718,-3.719 -0.371,0 -0.743,0.301 -1.114,0.301 -0.375,0 -1.09,-0.688 -1.425,-0.965 -0.614,-0.504 -0.512,-1.063 -0.512,-1.418 0,-5.148 4.199,-8.121 10.043,-8.477"
         style="fill:#00618f;fill-opacity:1;fill-rule:nonzero;stroke:none"
         id="path846" /><path
         d="m 58.566,49.102 c 1.227,-0.094 1.774,-0.063 2.246,0 1.571,0.375 4.676,1.691 4.676,3.718 0,0.371 -0.074,0.742 -0.445,0.742 -0.375,0 -1.359,-1.039 -1.731,-1.042 h -0.996 c -0.121,0.128 -0.101,-0.071 -0.101,0.3 0,0.371 0.297,0.371 0.297,0.742 0,0.372 -0.149,0.372 -0.172,0.579 -1.586,-0.207 -2.41,0.183 -4.258,0.597 -0.031,-0.504 -0.031,-0.953 -0.023,-1.371 -0.133,-0.125 -0.082,-0.101 -0.454,-0.101 -1.191,0 -2.082,2.23 -3.273,2.23 -0.891,0 -1.336,-0.816 -1.336,-1.336 0,-1.601 1.902,-3.863 3.465,-4.57 0.559,-0.238 1.351,-0.34 2.105,-0.488"
         style="fill:#ffffff;fill-opacity:1;fill-rule:nonzero;stroke:none"
         id="path848" /><path
         d="m 90.25,50.145 c 0.371,0 0.715,0.277 1.199,0.332 1.266,0.148 3.633,1.375 3.633,3.011 0,0.371 -0.156,1.074 -0.508,1.711 -0.66,-0.617 -1.398,-1.504 -2.265,-2.234 H 91.91 c -0.121,0.133 -0.246,-0.07 -0.246,0.301 0,0.371 0.141,0.488 0.297,0.832 -0.172,0.187 -0.149,0.359 -0.52,0.359 -0.226,0 -1.785,-0.746 -2.679,-0.746 -1.559,0 -3.567,1.191 -4.016,1.191 -0.371,0 -0.668,-0.445 -0.668,-0.816 0,-1.785 2.824,-1.34 2.824,-2.68 0,-0.687 1.805,-0.965 1.86,-0.965 0.375,0 1.117,-0.296 1.488,-0.296"
         style="fill:#ffffff;fill-opacity:1;fill-rule:nonzero;stroke:none"
         id="path850" /><path
         d="m 62.066,54.902 c 1.004,0 1.043,0.91 1.043,1.192 0,0.687 -0.519,1.484 -1.117,1.484 -1.078,0 -1.262,-0.855 -1.262,-1.336 0,-0.894 0.465,-1.34 1.336,-1.34"
         style="fill:#ffffff;fill-opacity:1;fill-rule:nonzero;stroke:none"
         id="path852" /><path
         d="m 88.762,55.051 c 0.855,0 1.394,0.816 1.414,1.414 0.019,0.59 -0.817,1.262 -1.192,1.262 -0.687,0 -1.172,-0.883 -1.187,-1.485 -0.008,-0.301 0.426,-1.191 0.965,-1.191"
         style="fill:#ffffff;fill-opacity:1;fill-rule:nonzero;stroke:none"
         id="path854" /><path
         d="m 83.336,74.609 c 0,1.188 -0.93,2.157 -2.008,2.157 -0.371,0 -0.387,0 -0.523,-0.161 -0.172,-0.203 0.011,-0.675 0.011,-0.675 -0.011,-0.375 0.59,-1.024 0.586,-1.395 -0.007,-0.68 -0.148,-1.109 -0.269,-2.515 1.597,0.625 2.203,1.082 2.203,2.589"
         style="fill:#ffffff;fill-opacity:1;fill-rule:nonzero;stroke:none"
         id="path856" /><path
         d="m 100.371,91.043 c 0.461,0.164 0.625,0.195 0.754,0.801 0.656,3.09 1.395,9.238 1.395,9.609 0,1.711 -1.481,4.781 -2.297,6.156 -1.098,1.821 -3.188,4.746 -5.012,6.11 -0.348,0.261 -5.965,4.043 -8.234,4.242 -1.61,0.144 -4.25,-2.453 -4.926,-3.445 -0.949,-1.391 -1.645,-2.875 -2.332,-4.176 -0.485,-0.914 -1.293,-2.344 -1.293,-2.715 0,-0.559 0.64,-1.02 0.957,-1.078 0.148,-0.016 3.644,-0.59 4.89,-1.129 5.668,-2.453 13.118,-6.793 15.165,-13.281 0.128,-0.43 0.421,-0.785 0.933,-1.094"
         style="fill:#ffffff;fill-opacity:1;fill-rule:nonzero;stroke:none"
         id="path858" /><path
         d="m 102.207,110.238 c 0.449,0.016 0.348,0.93 0.348,1.231 0.05,1.804 0.05,0.851 -0.043,2.078 -0.028,2.039 -1.414,4.601 -2.289,6.109 -0.836,1.449 -5.661,8.867 -8.782,8.867 -1.769,0 -4.089,-2.753 -4.089,-3.941 0,-0.875 1.226,-1.262 1.988,-1.469 0.762,-0.203 1.531,-0.441 2.219,-0.738 3.828,-1.73 6.625,-5.566 8.687,-8.988 0.477,-0.789 0.879,-2.707 1.289,-2.942 0.238,-0.136 0.36,-0.215 0.672,-0.207"
         style="fill:#ffffff;fill-opacity:1;fill-rule:nonzero;stroke:none"
         id="path860" /><path
         d="m 78.352,112.906 c 1.14,0.317 1.414,2.641 1.414,3.422 0,1.281 -1.078,5.426 -2.977,5.426 -0.371,0 -0.891,-0.371 -1.262,-0.371 -0.894,0 -2.75,1.859 -2.75,2.453 0,1.152 2.118,1.344 3.649,1.559 0.793,0.109 2.051,0.007 2.051,0.007 1.503,-1.175 1.05,-3.488 2.558,-4.867 0.293,-0.133 0.582,-0.199 1.164,-0.336 h 0.5 c 0.055,0.055 1.824,2.781 1.824,3.489 0,3.234 -7.75,4.984 -9.144,4.984 -3.516,0 -5.281,-5.84 -5.281,-7.734 0,-1.692 0.761,-2.829 2.304,-2.829 0.375,0 2.828,0.895 3.2,0.895 1.394,0 1.785,-1.524 1.785,-2.305 0,-0.371 -0.321,-1.562 -0.297,-1.933 0.055,-0.996 0.601,-1.864 1.262,-1.86"
         style="fill:#ffffff;fill-opacity:1;fill-rule:nonzero;stroke:none"
         id="path862" /><path
         d="m 31.25,62.348 c 0.41,-0.012 0.926,-0.047 1.414,0.183 0.582,0.805 0.004,2.422 1.18,3.176 0.285,0.051 0.57,0.199 0.941,0.199 1.672,0 3.121,-2.676 3.348,-2.676 0.371,0 1.058,0.446 1.699,0.622 0,0 0.121,0.285 0,0.769 -0.105,0.438 -3.211,4.277 -3.75,4.645 -0.242,0.16 -0.73,0.41 -1.195,0.593 -0.559,0.243 -1.367,0.36 -1.739,0.36 -1.785,0 -2.976,-2.453 -2.976,-3.571 0,-1.281 0.512,-3.078 1.078,-4.3"
         style="fill:#ffffff;fill-opacity:1;fill-rule:nonzero;stroke:none"
         id="path864" /><path
         d="m 52.336,107.555 c 0.234,-0.133 0.687,-0.004 0.687,-0.004 3.184,4.179 6.188,9.047 10.649,11.183 0.855,0.411 1.898,0.852 2.547,1.504 0.894,0.91 3.054,4.403 3.054,5.739 0,1.3 -1.453,1.339 -1.859,1.339 -0.801,0 -3.082,-1.125 -3.754,-1.457 -6.746,-3.496 -9.742,-11.48 -11.492,-17.199 0,0 -0.211,-0.894 0.168,-1.105"
         style="fill:#ffffff;fill-opacity:1;fill-rule:nonzero;stroke:none"
         id="path866" /><path
         d="m 43.84,108.875 c 0.894,0 2.535,3.047 2.91,3.641 0.297,0.484 3.234,4.722 4.016,6.062 1.652,2.809 6.312,8.758 6.308,9.129 0,0 0.285,0.762 -0.008,1.043 -0.132,0.133 -0.062,0.203 -0.433,0.203 -0.375,0 -1.438,0.082 -2.348,-0.812 -0.734,-0.723 -11.187,-16.61 -11.187,-18.375 0,-0.371 0.371,-0.891 0.742,-0.891"
         style="fill:#ffffff;fill-opacity:1;fill-rule:nonzero;stroke:none"
         id="path868" /><path
         d="m 54.215,87.023 c 0.027,0.086 0.484,2.368 0.484,2.739 0,0.371 0.809,1.808 1.219,2.644 0.91,1.84 2.109,3.871 3.41,5.489 1.524,1.917 4.555,4.355 6.582,5.675 2.676,1.727 6.168,2.645 8.938,2.664 0.449,0 0.988,0.114 1.625,0.309 0.218,0.277 0.382,0.547 0.382,0.918 0,2.176 -6.914,10.633 -9.293,10.633 -1.285,0 -2.945,-1.469 -4.066,-2.199 -3.492,-2.27 -7.098,-6.239 -9.199,-9.735 -1.113,-1.875 -3.617,-6.004 -3.617,-7.996 0,-0.371 0.152,-1.336 0.152,-1.707 0,-0.375 1.336,-4.836 1.336,-5.207 0,-0.371 1.488,-4.016 1.488,-4.387 l 0.559,0.16"
         style="fill:#ffffff;fill-opacity:1;fill-rule:nonzero;stroke:none"
         id="path870" /></g></g></svg>
