<?xml version="1.0" encoding="UTF-8" standalone="no"?>
<svg
   width="769pt"
   height="419pt"
   viewBox="0 0 769 419"
   version="1.1"
   id="svg37"
   xmlns="http://www.w3.org/2000/svg"
   xmlns:svg="http://www.w3.org/2000/svg">
  <defs
     id="defs3">
    <clipPath
       id="clip-0">
      <path
         clip-rule="nonzero"
         d="M 0 0.660156 L 767 0.660156 L 767 240 L 0 240 Z M 0 0.660156 "
         id="path1" />
    </clipPath>
    <clipPath
       id="clip-1">
      <path
         clip-rule="nonzero"
         d="M 135 379 L 177 379 L 177 418.941406 L 135 418.941406 Z M 135 379 "
         id="path2" />
    </clipPath>
    <clipPath
       id="clip-2">
      <path
         clip-rule="nonzero"
         d="M 727 379 L 768.25 379 L 768.25 418.941406 L 727 418.941406 Z M 727 379 "
         id="path3" />
    </clipPath>
  </defs>
  <g
     clip-path="url(#clip-0)"
     id="g4">
    <path
       fill-rule="nonzero"
       fill="rgb(0%, 34.901428%, 50.196838%)"
       fill-opacity="1"
       d="M 508.777344 232.554688 C 508.644531 201.722656 541.777344 196.894531 576.867188 178.484375 L 576.578125 177.703125 C 576.285156 174.167969 563.734375 156.769531 563.585938 152.472656 C 563.304688 144.28125 583.410156 133.546875 583.570312 131.484375 C 582.117188 129.570312 580.65625 127.636719 579.382812 125.59375 C 577.9375 125.519531 572.445312 131.359375 565.335938 131.359375 C 547.515625 131.359375 548.195312 110.082031 555.59375 99.007812 C 545.394531 78.503906 557.308594 78.839844 556.59375 73.527344 C 555.863281 68.105469 554.324219 63.988281 554.34375 58.222656 C 554.34375 58.222656 554.21875 55.117188 554.667969 53.988281 C 556.753906 48.757812 561.167969 50.441406 561.089844 44.046875 C 560.953125 33.167969 570.246094 28.679688 578.402344 24.351562 C 579.949219 23.53125 578.601562 14.234375 587.136719 9.523438 C 597.09375 4.027344 610.394531 -0.605469 620.171875 6.949219 C 628.984375 2.597656 640.421875 1.308594 650.140625 0.703125 C 657.359375 0.253906 660.574219 3.472656 664.542969 8.804688 L 665.515625 10.425781 C 672.550781 5.703125 677.09375 7.546875 679.875 14.691406 C 691.558594 6.023438 711.574219 28.304688 704.234375 44.171875 L 704.65625 45.089844 C 713.980469 47.492188 715.109375 66.550781 715.722656 73.777344 C 716.21875 79.605469 712.816406 84.035156 712.476562 89.015625 C 712.433594 89.652344 713.464844 90.335938 713.867188 90.671875 C 718.175781 94.265625 719.332031 94.933594 720.722656 100.507812 C 722.167969 106.316406 721.855469 114.097656 718.105469 119.21875 C 710.359375 129.800781 704.679688 125.683594 694.648438 122.859375 C 693.644531 124.226562 690.628906 128.269531 690.492188 129.738281 C 720.929688 145.359375 715.136719 143.46875 702.378906 172.757812 C 702.058594 173.496094 699.746094 178.699219 699.734375 179.074219 C 699.726562 179.441406 700.496094 179.804688 700.734375 179.941406 C 706.242188 183.140625 744.175781 197.996094 755.304688 207.667969 C 766.386719 217.296875 766.519531 232.605469 766.519531 232.605469 L 766.640625 239.027344 L 0 239.027344 L 0 232.382812 Z M 607.054688 15.191406 C 605.054688 15.191406 600.03125 17.316406 598.09375 18.804688 C 597.394531 19.347656 595.8125 20.003906 595.8125 21.1875 C 595.8125 21.8125 595.988281 22.050781 596.101562 22.152344 C 596.742188 22.265625 604.164062 21.9375 604.164062 21.9375 C 604.890625 22.179688 606.054688 23.1875 606.054688 23.8125 C 606.054688 25.277344 601.507812 28.320312 600.882812 28.601562 C 599.726562 29.132812 597.972656 29.039062 596.878906 29.601562 C 590.226562 33.101562 584.097656 38.097656 579.664062 43.722656 C 578.632812 45.03125 577.246094 47.691406 577.078125 48.296875 C 576.902344 48.921875 576.828125 49.417969 576.828125 50.042969 C 576.828125 51.042969 578.015625 52.417969 579.824219 52.417969 C 580.449219 52.417969 582.292969 51.402344 582.949219 50.625 C 583.824219 49.59375 584.476562 48.105469 584.476562 46.796875 C 584.476562 42.109375 586.507812 38.425781 591.816406 38.425781 C 592.441406 38.425781 594.9375 39.175781 595.5625 39.175781 C 596.1875 39.175781 596.148438 36.863281 596.851562 35.875 C 599.636719 31.953125 603.152344 28.054688 607.445312 26.933594 C 607.679688 26.933594 608.152344 26.863281 611.167969 26.933594 C 613.648438 27.429688 616.4375 28.019531 618.875 28.988281 C 619.6875 29.300781 624.074219 32.929688 625.789062 32.929688 C 626.289062 32.929688 627.789062 32.335938 627.789062 31.433594 C 627.789062 28.621094 620.546875 27.496094 620.546875 24.6875 C 620.546875 23.34375 622.855469 23.1875 623.167969 23.1875 C 626.820312 23.1875 633.941406 26.832031 636.222656 29.390625 C 636.65625 29.859375 638.28125 35.179688 639.65625 35.179688 C 640.777344 35.179688 642.277344 33.335938 642.277344 32.179688 C 642.277344 31.554688 642.527344 29.808594 642.527344 29.183594 C 642.527344 28.558594 642.253906 26.796875 641.660156 25.984375 C 639.882812 23.582031 634.222656 19.9375 631.660156 19.9375 C 631.566406 19.9375 625.011719 21.1875 623.917969 21.1875 C 623.292969 21.1875 619.808594 20.574219 617.964844 19.855469 C 616.5625 19.324219 615.363281 18.210938 614.238281 17.523438 C 612.894531 16.710938 609.929688 15.441406 609.304688 15.441406 C 608.679688 15.441406 607.679688 15.191406 607.054688 15.191406 Z M 670.882812 18.191406 C 668.914062 18.191406 662.402344 21.394531 661.554688 22.03125 C 658.695312 24.1875 657.601562 26.414062 656.714844 30.109375 C 656.46875 31.144531 656.648438 32.121094 656.835938 32.839844 C 657.113281 33.839844 657.765625 34.914062 658.359375 35.632812 C 658.980469 36.382812 660.277344 37.015625 660.683594 37.855469 C 661.496094 39.511719 661.105469 41.660156 662.105469 42.878906 C 664.070312 45.3125 665.386719 45.421875 667.261719 45.421875 C 671.476562 45.421875 672.195312 41.425781 678.253906 41.425781 C 678.878906 41.425781 680.953125 41.90625 682.082031 42.476562 C 682.84375 42.867188 684.175781 44.863281 684.691406 44.148438 C 685.222656 43.40625 685.246094 42.550781 685.246094 41.925781 C 685.246094 38.113281 678.628906 34.429688 674.628906 34.429688 C 674.003906 34.429688 670.105469 35.023438 667.859375 35.492188 C 666.640625 35.742188 664.511719 36.679688 663.886719 36.679688 C 662.980469 36.679688 662.515625 35.585938 662.515625 34.554688 C 662.515625 33.929688 663.003906 31.808594 663.511719 30.308594 C 664.015625 28.828125 669.921875 20.886719 672.429688 20.085938 C 672.695312 19.921875 672.761719 19.71875 672.773438 19.433594 C 672.785156 19.117188 672.71875 18.976562 672.429688 18.699219 C 671.867188 18.292969 671.507812 18.191406 670.882812 18.191406 Z M 677.128906 47.671875 C 676.503906 47.671875 675.675781 47.648438 675.273438 47.976562 C 675.070312 48.140625 674.964844 48.410156 675.003906 48.917969 C 675.074219 49.820312 676.589844 50.792969 677.035156 51.1875 C 678.492188 52.492188 680.242188 53.988281 681.429688 55.613281 C 683.460938 58.453125 684.589844 61.925781 686.773438 64.613281 C 688.523438 66.734375 689.867188 67.90625 691.367188 67.90625 C 691.992188 67.90625 692.089844 67.304688 692.089844 67.304688 C 692.363281 66.257812 692.386719 65.523438 692.386719 64.898438 C 692.386719 64.273438 692.199219 63.574219 692.050781 63.015625 C 690.800781 58.1875 688.222656 50.707031 681.902344 49.078125 C 680.347656 48.679688 677.753906 47.671875 677.128906 47.671875 Z M 598.8125 146.601562 C 598.542969 148.132812 596.425781 153.367188 596.425781 153.941406 C 596.425781 154.566406 594.175781 162.0625 594.175781 162.6875 C 594.175781 163.308594 593.925781 164.933594 593.925781 165.558594 C 593.925781 168.902344 598.128906 175.835938 600 178.988281 C 603.53125 184.859375 609.585938 191.527344 615.449219 195.339844 C 617.277344 196.527344 619.953125 198.882812 622.074219 199.027344 C 622.347656 199.0625 622.542969 199.035156 622.753906 198.976562 C 627.117188 198.003906 637.894531 184.691406 637.894531 181.175781 C 637.894531 180.550781 637.617188 180.097656 637.246094 179.632812 C 636.179688 179.304688 635.269531 179.113281 634.519531 179.113281 C 629.867188 179.082031 624.003906 177.539062 619.507812 174.636719 C 616.101562 172.417969 611.011719 168.324219 608.449219 165.105469 C 606.265625 162.390625 604.25 158.976562 602.71875 155.886719 C 602.480469 155.394531 602.15625 154.78125 601.839844 154.167969 L 600.664062 151.304688 C 600.703125 150.902344 600.792969 150.917969 600.765625 150.828125 L 601.390625 150.828125 C 602.851562 152.066406 619.449219 168.46875 625.886719 168.585938 L 635.628906 168.585938 C 639.6875 168.585938 645.773438 166.242188 645.773438 160.339844 C 645.773438 155.1875 640.03125 154.34375 636.53125 154.34375 C 635.90625 154.34375 631.507812 155.273438 630.164062 155.34375 C 629.507812 155.378906 625.789062 154.34375 625.789062 152.847656 C 625.789062 150.691406 631.351562 150.347656 632.660156 150.347656 C 633.285156 150.347656 640.03125 152.097656 640.652344 152.097656 C 642.996094 152.097656 646.523438 150.691406 646.523438 147.101562 C 646.523438 145.132812 643.371094 143.851562 641.527344 143.851562 C 639.21875 143.851562 636.710938 145.976562 633.996094 145.976562 C 633.371094 145.976562 630.671875 144.679688 630.046875 144.679688 C 629.425781 144.679688 625.332031 146.601562 624.210938 146.570312 C 623.222656 146.542969 620.238281 143.542969 619.613281 143.542969 C 618.988281 143.542969 617.046875 145.363281 616.421875 145.363281 C 615.796875 145.363281 615.617188 144.644531 615.179688 144.460938 C 615.367188 144.019531 615.6875 140.210938 618.1875 140.210938 C 618.8125 140.210938 621.042969 141.851562 621.667969 141.851562 C 625.195312 141.851562 624.820312 138.855469 627.789062 138.855469 C 631.285156 138.855469 631.566406 143.101562 634.285156 143.101562 C 636.503906 143.101562 637.25 139.105469 640.40625 139.105469 C 642.964844 139.105469 645.496094 142.101562 646.898438 142.101562 C 648.335938 142.101562 649.835938 140.105469 652.394531 140.105469 C 653.019531 140.105469 653.933594 141.484375 654.183594 142.265625 C 654.398438 142.984375 654.175781 143.726562 654.175781 144.476562 C 654.175781 145.226562 654.460938 146.15625 654.867188 146.5625 C 655.210938 146.90625 655.269531 147.351562 655.894531 147.351562 L 658.859375 147.351562 C 662.296875 147.351562 671.222656 130.207031 671.410156 129.519531 C 671.878906 127.800781 672.507812 124.988281 672.507812 124.363281 C 672.507812 123.742188 672.976562 120.984375 672.757812 116.988281 C 672.535156 112.429688 675.003906 109.0625 675.003906 104.503906 C 675.003906 103.878906 674.71875 101.476562 674.40625 100.226562 C 674.03125 98.789062 672.546875 97.691406 671.644531 98.148438 C 671.324219 98.3125 670.007812 100.445312 670.007812 101.507812 C 670.007812 102.132812 670.207031 104.546875 669.675781 105.703125 C 668.488281 108.324219 663.199219 111.625 661.015625 111.625 C 660.359375 111.625 659.015625 111.21875 659.015625 109.375 C 659.015625 108.75 660.265625 107.628906 660.265625 107.003906 C 660.265625 105.972656 659.425781 106.179688 658.25 105.449219 C 658.25 105.449219 657.785156 105.207031 658.25 104.574219 C 659.9375 103.871094 661.664062 103.660156 663.414062 103.285156 C 665.164062 102.910156 668.257812 98.664062 668.257812 96.761719 C 668.257812 96.105469 666.511719 94.136719 665.011719 94.136719 C 664.386719 94.136719 664.582031 94.46875 664.582031 94.46875 C 664.921875 96.191406 663.808594 99.378906 662.3125 100.566406 C 661.40625 101.285156 660.015625 101.882812 659.390625 101.882812 C 658.765625 101.882812 657.636719 101.753906 657.351562 101.664062 C 653.945312 100.640625 653.019531 97.886719 653.019531 95.511719 C 653.019531 94.699219 653.339844 95 652.683594 94.144531 C 652.015625 94.328125 648.023438 96.105469 648.023438 97.886719 C 648.023438 99.289062 652.269531 101.632812 652.269531 102.632812 C 652.269531 105.222656 648.273438 103.160156 648.273438 105.378906 C 648.273438 106.003906 649.773438 112.34375 649.773438 112.96875 L 649.773438 116.777344 C 649.773438 122.367188 653.519531 120.773438 653.519531 125.863281 C 653.519531 126.894531 651.210938 129.875 650.433594 130.1875 C 649.683594 130.46875 649.324219 130.898438 648.699219 131.429688 C 648.1875 132.105469 648.269531 132.1875 647.730469 133.105469 C 646.871094 134.566406 645.742188 134.441406 644.699219 134.242188 C 642.160156 133.757812 641 133.316406 638.90625 133.316406 C 638.28125 133.316406 636.78125 134.988281 636.15625 134.988281 C 635.53125 134.988281 634.625 134.617188 634.0625 134.027344 C 633.75 133.714844 632.679688 130.296875 630.804688 130.296875 C 630.179688 130.296875 626.789062 131.859375 626.164062 131.859375 C 623.855469 131.859375 621.042969 129.050781 621.042969 126.863281 C 621.042969 126.707031 621.054688 124.671875 622.804688 124.671875 C 624.085938 124.671875 623.640625 126.191406 624.921875 126.863281 C 626.484375 125.84375 628.664062 123.117188 629.289062 123.117188 C 629.914062 123.117188 630.191406 123.160156 630.597656 123.410156 C 631.535156 123.972656 632.785156 126.519531 632.785156 128.113281 C 632.785156 129.613281 634.535156 130.859375 636.03125 130.859375 C 639.1875 130.859375 641.027344 128.488281 641.027344 125.488281 C 641.027344 124.863281 639.78125 120.492188 639.78125 119.867188 C 639.78125 119.242188 639.777344 119.523438 639.84375 119.253906 C 639.78125 118.484375 639.777344 117.722656 639.6875 117.257812 C 639.773438 117.039062 640.53125 108.878906 640.53125 108.253906 C 640.53125 103.972656 638.28125 99.851562 638.28125 95.386719 C 638.28125 93.542969 638.617188 88.699219 640.304688 87.105469 C 643.707031 83.890625 651.460938 79.898438 657.640625 79.898438 C 658.265625 79.898438 662.148438 80.789062 664.085938 81.695312 C 664.679688 81.945312 666.546875 83.453125 667.414062 83.640625 C 668.683594 82.585938 669.507812 79.773438 669.507812 78.148438 C 669.507812 72.464844 662.265625 68.125 662.265625 61.660156 C 662.265625 61.035156 663.511719 54.039062 663.511719 53.414062 C 663.511719 52.789062 663.292969 51.492188 663.167969 50.523438 C 662.480469 45.621094 656.582031 40.425781 652.519531 40.425781 C 651.894531 40.425781 641.902344 41.425781 641.277344 41.425781 C 635.097656 41.425781 631.160156 37.429688 624.417969 37.429688 C 623.792969 37.429688 617.632812 38.269531 614.414062 38.488281 C 600.675781 39.457031 593.8125 49.355469 593.8125 62.910156 C 593.8125 63.535156 594.160156 65.8125 593.882812 67 C 592.289062 73.308594 588.070312 77.742188 588.070312 83.394531 L 588.816406 107 C 588.320312 114.082031 583.320312 110.3125 583.320312 116.996094 C 583.320312 117.621094 583.574219 120.796875 583.886719 122.515625 C 584.074219 123.542969 584.722656 124.660156 585.160156 125.222656 C 585.40625 125.566406 587.570312 126.613281 588.195312 126.613281 C 589.910156 126.613281 590.902344 123.320312 592.203125 122.867188 C 593.605469 123.265625 592.585938 126.550781 592.796875 128.242188 C 593.234375 131.730469 595.398438 138.558594 595.628906 139.261719 C 596.039062 140.515625 596.507812 141.335938 596.882812 142.273438 C 597.476562 143.773438 598.8125 145.976562 598.8125 146.601562 Z M 561.285156 105.394531 C 560.332031 107.445312 559.480469 110.464844 559.480469 112.621094 C 559.480469 114.492188 561.476562 118.617188 564.476562 118.617188 C 565.097656 118.617188 566.460938 118.417969 567.394531 118.015625 C 568.175781 117.699219 568.992188 117.285156 569.398438 117.011719 C 570.304688 116.398438 575.527344 109.945312 575.703125 109.21875 C 575.902344 108.398438 575.703125 107.921875 575.703125 107.921875 C 574.621094 107.628906 573.46875 106.875 572.84375 106.875 C 572.46875 106.875 570.03125 111.371094 567.222656 111.371094 C 566.597656 111.371094 566.121094 111.125 565.644531 111.035156 C 563.667969 109.765625 564.640625 107.050781 563.660156 105.703125 C 562.84375 105.316406 561.976562 105.375 561.285156 105.394531 Z M 660.390625 84.894531 C 659.765625 84.894531 658.515625 85.394531 657.894531 85.394531 C 657.796875 85.394531 654.769531 85.859375 654.769531 87.015625 C 654.769531 89.265625 650.023438 88.515625 650.023438 91.515625 C 650.023438 92.140625 650.523438 92.886719 651.148438 92.886719 C 651.894531 92.886719 655.269531 90.890625 657.894531 90.890625 C 659.390625 90.890625 662.015625 92.140625 662.390625 92.140625 C 663.011719 92.140625 662.976562 91.851562 663.261719 91.535156 C 663 90.960938 662.765625 90.765625 662.765625 90.140625 C 662.765625 89.515625 662.976562 89.851562 663.175781 89.632812 L 663.84375 89.632812 C 665.308594 90.859375 666.546875 92.351562 667.65625 93.386719 C 668.246094 92.320312 668.511719 91.140625 668.511719 90.515625 C 668.511719 87.765625 664.527344 85.707031 662.402344 85.457031 C 661.589844 85.363281 661.015625 84.894531 660.390625 84.894531 Z M 690.242188 76.398438 C 685.933594 76.398438 682.75 85.332031 682.75 88.140625 C 682.75 89.734375 683.476562 92.507812 684.492188 94.71875 C 685.394531 96.675781 686.648438 98.871094 688.085938 100.589844 C 691.554688 104.710938 697.175781 107.128906 701.109375 107.128906 C 702.140625 107.128906 710.476562 105.753906 710.476562 102.007812 C 710.476562 99.664062 709.796875 97.683594 707.679688 94.910156 C 704.902344 93.832031 703.765625 97.996094 701.546875 99.308594 C 700.171875 100.089844 698.257812 100.691406 697.632812 100.691406 C 697.007812 100.691406 695.714844 100.550781 694.902344 100.179688 C 691.0625 98.421875 688.742188 95.730469 688.742188 92.265625 C 688.742188 89.109375 691.128906 84.519531 695.628906 84.050781 C 696.03125 84.019531 696.738281 83.082031 696.738281 82.394531 C 696.738281 79.898438 692.742188 76.398438 690.242188 76.398438 Z M 657.894531 93.136719 C 656.984375 93.136719 656.253906 94.636719 656.269531 95.136719 C 656.296875 96.152344 657.109375 97.636719 658.265625 97.636719 C 658.890625 97.636719 660.300781 96.503906 660.265625 95.511719 C 660.230469 94.511719 659.328125 93.136719 657.894531 93.136719 Z M 648.773438 125.988281 C 648.773438 123.460938 647.761719 122.6875 645.074219 121.640625 C 645.277344 124.003906 645.511719 124.726562 645.527344 125.863281 C 645.535156 126.488281 644.527344 127.582031 644.546875 128.207031 C 644.546875 128.207031 644.238281 129.003906 644.523438 129.339844 C 644.757812 129.613281 644.777344 129.613281 645.402344 129.613281 C 647.210938 129.613281 648.773438 127.988281 648.773438 125.988281 Z M 677.390625 153.597656 C 676.527344 154.113281 676.039062 154.714844 675.820312 155.429688 C 672.386719 166.328125 659.871094 173.621094 650.347656 177.742188 C 648.257812 178.648438 642.382812 179.609375 642.132812 179.640625 C 641.605469 179.734375 640.53125 180.511719 640.53125 181.449219 C 640.53125 182.074219 641.886719 184.476562 642.699219 186.007812 C 643.855469 188.191406 645.023438 190.6875 646.617188 193.023438 C 647.753906 194.6875 652.1875 199.050781 654.894531 198.8125 C 658.703125 198.476562 668.140625 192.121094 668.726562 191.683594 C 671.789062 189.390625 675.300781 184.480469 677.140625 181.421875 C 678.515625 179.109375 681 173.953125 681 171.082031 C 681 170.457031 679.761719 160.132812 678.65625 154.941406 C 678.4375 153.925781 678.167969 153.867188 677.390625 153.597656 Z M 596.707031 181.328125 C 596.066406 181.6875 596.425781 183.183594 596.425781 183.183594 C 599.363281 192.796875 604.394531 206.203125 615.726562 212.074219 C 616.851562 212.636719 620.6875 214.523438 622.027344 214.523438 C 622.71875 214.523438 625.152344 214.464844 625.152344 212.277344 C 625.152344 210.027344 621.523438 204.164062 620.027344 202.632812 C 618.933594 201.539062 617.183594 200.796875 615.746094 200.109375 C 608.25 196.519531 603.207031 188.34375 597.859375 181.320312 C 597.859375 181.320312 597.097656 181.109375 596.707031 181.328125 Z M 582.433594 183.546875 C 581.808594 183.546875 581.183594 184.421875 581.183594 185.046875 C 581.183594 188.011719 598.742188 214.695312 599.980469 215.910156 C 601.507812 217.414062 603.292969 217.273438 603.917969 217.273438 C 604.542969 217.273438 604.425781 217.152344 604.652344 216.933594 C 605.144531 216.460938 604.660156 215.179688 604.660156 215.179688 C 604.667969 214.558594 596.84375 204.5625 594.066406 199.847656 C 592.753906 197.597656 587.816406 190.476562 587.316406 189.664062 C 586.695312 188.664062 583.933594 183.546875 582.433594 183.546875 Z M 640.402344 190.316406 C 639.292969 190.3125 638.375 191.769531 638.28125 193.441406 C 638.246094 194.066406 638.78125 196.0625 638.78125 196.6875 C 638.78125 198 638.125 200.5625 635.78125 200.5625 C 635.160156 200.5625 631.035156 199.0625 630.414062 199.0625 C 627.820312 199.0625 626.539062 200.96875 626.539062 203.808594 C 626.539062 206.992188 629.507812 216.800781 635.410156 216.800781 C 637.75 216.800781 650.773438 213.863281 650.773438 208.429688 C 650.773438 207.242188 647.800781 202.660156 647.707031 202.570312 L 646.863281 202.570312 C 645.890625 202.800781 645.402344 202.910156 644.910156 203.136719 C 642.375 205.449219 643.140625 209.332031 640.617188 211.308594 C 640.617188 211.308594 638.5 211.480469 637.167969 211.296875 C 634.59375 210.933594 631.035156 210.617188 631.035156 208.679688 C 631.035156 207.683594 634.160156 204.558594 635.65625 204.558594 C 636.28125 204.558594 637.15625 205.179688 637.78125 205.179688 C 640.964844 205.179688 642.777344 198.21875 642.777344 196.0625 C 642.777344 194.753906 642.320312 190.851562 640.402344 190.316406 Z M 680.472656 185.839844 C 679.953125 185.824219 679.742188 185.953125 679.34375 186.183594 C 678.652344 186.578125 677.980469 189.796875 677.179688 191.125 C 673.71875 196.875 669.019531 203.320312 662.585938 206.226562 C 661.433594 206.726562 660.140625 207.125 658.859375 207.46875 C 657.578125 207.808594 655.519531 208.460938 655.519531 209.929688 C 655.519531 211.929688 659.421875 216.550781 662.390625 216.550781 C 667.636719 216.550781 675.734375 204.089844 677.140625 201.652344 C 678.609375 199.125 680.9375 194.816406 680.992188 191.394531 C 681.140625 189.339844 681.140625 190.933594 681.0625 187.90625 C 681.0625 187.402344 681.226562 185.863281 680.472656 185.839844 "
       id="path4" />
  </g>
  <path
     fill-rule="evenodd"
     fill="rgb(0%, 34.901428%, 50.196838%)"
     fill-opacity="1"
     d="M 610.429688 80.148438 C 612.441406 80.398438 612.675781 80.148438 612.933594 80.148438 C 614.9375 80.398438 617.414062 80.535156 619.226562 81.472656 C 622.351562 83.066406 627.011719 85.96875 629.664062 89.183594 C 630.101562 89.71875 631.035156 93.574219 631.035156 94.761719 C 631.035156 95.386719 629.285156 102.328125 629.289062 104.378906 C 629.292969 105.855469 630.535156 111.625 630.535156 112.25 C 630.535156 113.527344 630.699219 115.664062 629.460938 117.359375 C 628.363281 117.214844 624.542969 111.09375 624.542969 108.878906 C 624.542969 105.597656 627.539062 105.066406 627.539062 100.632812 C 627.539062 99.820312 627.382812 99.132812 626.539062 99.132812 C 625.914062 99.132812 623.261719 102.132812 622.636719 102.125 C 622.636719 102.125 621.296875 102.539062 620.640625 102.121094 C 620.359375 101.941406 620.046875 101.511719 620.046875 101.511719 C 621.09375 99.785156 623.042969 97.445312 623.042969 96.011719 C 623.042969 95.011719 620.402344 93.042969 619.699219 93.136719 C 618.179688 93.632812 619.324219 95.777344 619.199219 96.777344 C 618.890625 99.023438 615.921875 102.132812 613.675781 102.132812 C 612.582031 102.132812 609.773438 100.90625 609.148438 100.25 C 606.527344 97.472656 607.804688 97.070312 607.804688 94.636719 C 607.804688 94.011719 607.554688 94.261719 607.589844 93.851562 C 607.429688 93.886719 607.429688 93.636719 606.804688 93.636719 C 605.148438 93.636719 603.558594 96.261719 603.558594 97.261719 C 603.558594 99.164062 604.800781 101.570312 607.542969 102.203125 C 606.730469 103.933594 606.148438 104.128906 604.933594 104.128906 C 600.214844 104.128906 600.777344 97.886719 598.6875 97.886719 C 598.0625 97.886719 597.4375 98.382812 596.8125 98.382812 C 596.1875 98.382812 594.984375 97.230469 594.421875 96.761719 C 593.390625 95.921875 593.5625 94.980469 593.5625 94.386719 C 593.5625 85.734375 600.613281 80.742188 610.429688 80.148438 Z M 607.171875 83.144531 C 605.90625 83.398438 604.566406 83.5625 603.632812 83.96875 C 601.007812 85.152344 597.8125 88.953125 597.8125 91.640625 C 597.8125 92.511719 598.5625 93.886719 600.0625 93.886719 C 602.058594 93.886719 603.558594 90.140625 605.554688 90.140625 C 606.179688 90.140625 606.09375 90.101562 606.3125 90.3125 C 606.304688 91.015625 606.304688 91.765625 606.351562 92.609375 C 609.457031 91.917969 610.847656 91.261719 613.507812 91.609375 C 613.550781 91.265625 613.800781 91.265625 613.800781 90.640625 C 613.800781 90.015625 613.300781 90.015625 613.300781 89.390625 C 613.300781 88.765625 613.265625 89.105469 613.46875 88.886719 L 615.144531 88.886719 C 615.765625 88.890625 617.421875 90.640625 618.046875 90.640625 C 618.671875 90.640625 618.796875 90.015625 618.796875 89.390625 C 618.796875 85.984375 613.578125 83.773438 610.941406 83.144531 C 610.152344 83.039062 609.230469 82.984375 607.171875 83.144531 Z M 613.050781 92.886719 C 611.582031 92.886719 610.800781 93.636719 610.800781 95.136719 C 610.800781 95.949219 611.113281 97.386719 612.925781 97.386719 C 613.925781 97.386719 614.800781 96.042969 614.800781 94.886719 C 614.800781 94.417969 614.734375 92.886719 613.050781 92.886719 "
     id="path5" />
  <path
     fill-rule="nonzero"
     fill="rgb(0%, 34.901428%, 50.196838%)"
     fill-opacity="1"
     d="M 72.839844 275.679688 L 68.167969 277.488281 C 65.402344 278.65625 63.90625 279.613281 63.804688 281.84375 C 63.59375 287.800781 63.804688 296.511719 63.59375 315.449219 C 63.382812 336.058594 53.28125 343.707031 37.449219 343.707031 C 22.035156 343.707031 11.292969 337.015625 11.292969 320.753906 L 11.292969 290.882812 C 11.292969 281.960938 10.988281 279.824219 8 278.65625 L 0.339844 275.679688 L 0.339844 274.195312 C 5.558594 274.617188 10.554688 275.050781 15.542969 275.050781 C 21.183594 275.050781 26.707031 274.617188 32.34375 274.195312 L 32.34375 275.679688 L 27.453125 277.488281 C 21.601562 279.722656 20.75 280.148438 20.550781 283.867188 C 20.226562 290.148438 20.226562 299.273438 20.226562 315.648438 C 20.226562 329.253906 23.308594 338.183594 40.203125 338.183594 C 51.378906 338.183594 58.070312 331.269531 58.070312 318.507812 C 58.070312 305.453125 57.964844 288.539062 57.101562 281.199219 C 56.902344 279.289062 55.304688 278.445312 52.429688 277.488281 L 46.578125 275.679688 L 46.578125 274.195312 C 51.15625 274.617188 55.722656 275.050781 60.402344 275.050781 C 64.445312 275.050781 68.589844 274.617188 72.839844 274.195312 L 72.839844 275.679688 "
     id="path6" />
  <path
     fill-rule="nonzero"
     fill="rgb(0%, 34.901428%, 50.196838%)"
     fill-opacity="1"
     d="M 162.375 276.21875 L 155.25 278.765625 C 152.914062 279.613281 151.84375 280.675781 151.738281 282.601562 C 151.417969 291.199219 150.570312 310.019531 150.570312 316.1875 C 150.570312 320.542969 150.570312 332.753906 150.777344 344.875 L 148.234375 344.875 C 141.425781 334.789062 134.09375 325.105469 126.867188 315.332031 L 105.285156 286.304688 L 105.074219 286.304688 L 105.074219 298.214844 C 105.074219 312.253906 105.285156 333.1875 105.601562 335.207031 C 105.925781 336.914062 106.675781 337.753906 109.757812 338.710938 L 116.773438 340.941406 L 116.773438 342.421875 C 112.09375 342.015625 107.308594 341.597656 102.636719 341.597656 C 98.054688 341.597656 93.609375 342.015625 89.03125 342.421875 L 89.03125 340.941406 L 97.101562 337.859375 C 98.597656 337.332031 99.550781 336.375 99.65625 335.414062 C 100.078125 332.019531 100.824219 316.1875 100.824219 302.570312 L 100.824219 281.53125 L 99.445312 279.40625 C 96.144531 277.910156 92.859375 276.753906 89.449219 275.679688 L 89.449219 274.195312 C 92.859375 274.617188 96.261719 275.050781 99.65625 275.050781 C 102.84375 275.050781 106.03125 274.617188 109.222656 274.195312 C 111.238281 277.910156 113.484375 281.316406 116.027344 284.71875 L 146.105469 325.105469 L 146.316406 324.898438 L 146.316406 299.175781 C 146.316406 294.070312 146.214844 288.863281 145.898438 283.652344 C 145.6875 280.675781 144.835938 279.824219 141.753906 278.554688 L 134.734375 275.679688 L 134.734375 274.195312 C 139.089844 274.617188 143.5625 275.050781 147.917969 275.050781 C 152.695312 275.050781 157.480469 274.617188 162.375 274.195312 L 162.375 276.21875 "
     id="path7" />
  <path
     fill-rule="nonzero"
     fill="rgb(0%, 34.901428%, 50.196838%)"
     fill-opacity="1"
     d="M 180.195312 340.941406 L 188.378906 338.183594 C 191.035156 337.226562 191.355469 336.796875 191.449219 328.609375 C 191.566406 322.246094 191.78125 315.757812 191.78125 309.378906 C 191.78125 303.003906 191.566406 296.511719 191.449219 290.148438 C 191.242188 280.148438 191.140625 279.40625 189.113281 278.65625 L 180.195312 275.679688 L 180.195312 274.195312 C 185.285156 274.617188 190.507812 275.050781 196.453125 275.050781 C 201.765625 275.050781 206.972656 274.617188 212.296875 274.195312 L 212.296875 275.679688 L 203.363281 278.65625 C 201.339844 279.40625 201.238281 280.148438 201.023438 290.148438 C 200.921875 296.511719 200.699219 303.003906 200.699219 309.378906 C 200.699219 315.757812 200.921875 322.246094 201.023438 328.609375 C 201.132812 336.796875 201.449219 337.226562 204.109375 338.183594 L 212.296875 340.941406 L 212.296875 342.421875 C 207.296875 342.015625 201.132812 341.597656 196.453125 341.597656 C 191.140625 341.597656 184.96875 342.015625 180.195312 342.421875 L 180.195312 340.941406 "
     id="path8" />
  <path
     fill-rule="nonzero"
     fill="rgb(0%, 34.901428%, 50.196838%)"
     fill-opacity="1"
     d="M 223.449219 274.195312 C 228.339844 274.617188 233.339844 275.050781 238.21875 275.050781 C 242.691406 275.050781 247.257812 274.617188 251.730469 274.195312 L 251.730469 275.679688 L 248.003906 276.753906 C 243.109375 278.132812 242.15625 278.65625 242.15625 279.824219 C 242.15625 282.066406 255.769531 315.113281 260.769531 326.382812 C 267.25 310.886719 273.191406 295.5625 276.917969 283.761719 C 277.558594 281.84375 277.980469 280.675781 277.980469 279.507812 C 277.980469 278.339844 274.6875 277.164062 270.003906 275.679688 L 270.003906 274.195312 C 274.042969 274.617188 278.085938 275.050781 282.125 275.050781 C 285.417969 275.050781 288.605469 274.617188 291.792969 274.195312 L 291.792969 275.679688 C 287.226562 276.847656 285.730469 278.027344 284.039062 281.632812 C 277.335938 296.195312 268.941406 317.132812 259.167969 343.707031 L 256.726562 343.707031 C 249.8125 324.363281 238.964844 297.589844 232.277344 282.160156 C 230.570312 278.238281 229.835938 277.910156 226.425781 276.753906 L 223.449219 275.679688 L 223.449219 274.195312 "
     id="path9" />
  <path
     fill-rule="nonzero"
     fill="rgb(0%, 34.901428%, 50.196838%)"
     fill-opacity="1"
     d="M 313.960938 290.148438 C 313.960938 280.148438 313.636719 279.40625 311.3125 278.65625 L 302.367188 275.679688 L 302.367188 274.195312 C 311.195312 274.617188 319.273438 275.050781 327.34375 275.050781 C 337.457031 275.050781 347.457031 274.617188 356.796875 274.195312 C 356.6875 276.847656 356.472656 280.675781 356.472656 282.277344 C 356.472656 283.867188 356.6875 287.488281 356.796875 289.9375 L 355.304688 289.9375 L 352.539062 281.960938 C 351.484375 278.972656 350.644531 278.972656 338.410156 278.972656 C 332.238281 278.972656 327.34375 279.078125 323.421875 279.183594 C 323.210938 282.910156 322.894531 286.84375 322.894531 291.300781 L 322.894531 304.378906 L 333.941406 304.378906 C 346.8125 304.378906 347.980469 304.171875 348.941406 301.835938 L 351.691406 294.277344 L 353.183594 294.277344 C 353.085938 298.320312 352.96875 302.359375 352.96875 306.296875 C 352.96875 310.660156 353.085938 314.6875 353.183594 319.152344 L 351.691406 319.152344 L 348.941406 311.070312 C 347.980469 308.75 346.8125 308.523438 333.941406 308.523438 L 322.894531 308.523438 L 322.894531 322.980469 C 322.894531 327.875 323.210938 332.753906 323.421875 337.226562 C 328.421875 337.332031 333.417969 337.660156 338.207031 337.660156 C 349.5625 337.660156 351.167969 337.542969 352.230469 336.28125 C 353.503906 334.683594 354.671875 331.269531 356.589844 325.003906 L 358.058594 325.003906 C 357.851562 328.085938 357.4375 331.269531 357.4375 334.363281 L 357.4375 342.421875 C 351.917969 342.015625 335.542969 341.597656 329.585938 341.597656 C 320.234375 341.597656 310.027344 342.015625 302.367188 342.421875 L 302.367188 340.941406 L 310.566406 338.183594 C 313.542969 337.226562 313.960938 336.796875 313.960938 328.609375 L 313.960938 290.148438 "
     id="path10" />
  <path
     fill-rule="nonzero"
     fill="rgb(0%, 34.901428%, 50.196838%)"
     fill-opacity="1"
     d="M 400.714844 305.230469 L 407.941406 305.230469 C 417.828125 305.230469 426.957031 303.644531 426.957031 291.945312 C 426.957031 282.601562 420.484375 278.554688 410.492188 278.554688 C 407.085938 278.554688 403.902344 278.65625 400.714844 278.65625 Z M 380.199219 340.941406 L 388.382812 338.183594 C 391.351562 337.226562 391.78125 336.796875 391.78125 328.609375 L 391.78125 290.148438 C 391.78125 280.148438 391.46875 279.40625 389.121094 278.65625 L 380.199219 275.679688 L 380.199219 274.195312 C 384.132812 274.617188 389.121094 275.050781 394.863281 275.050781 C 400.394531 275.050781 406.445312 274.195312 414.007812 274.195312 C 428.027344 274.195312 437.175781 279.929688 437.175781 290.566406 C 437.175781 301.308594 429.527344 306.398438 419.738281 308 L 434.402344 329.894531 C 440.566406 339.144531 441.105469 339.878906 447.046875 340.941406 L 447.046875 342.421875 C 444.609375 342.226562 442.058594 342.015625 439.628906 342.015625 C 437.0625 342.015625 434.402344 342.226562 431.75 342.421875 C 424.953125 330.960938 415.484375 317.34375 408.894531 308.75 L 400.714844 308.75 L 400.714844 320.960938 C 400.714844 334.789062 401.035156 337.226562 403.796875 338.066406 L 412.28125 340.941406 L 412.28125 342.421875 C 407.71875 342.015625 400.597656 341.597656 396.890625 341.597656 C 391.46875 341.597656 385.300781 342.015625 380.199219 342.421875 L 380.199219 340.941406 "
     id="path11" />
  <path
     fill-rule="nonzero"
     fill="rgb(0%, 34.901428%, 50.196838%)"
     fill-opacity="1"
     d="M 465.65625 323.414062 L 467.144531 323.414062 L 470.765625 337.125 C 473.945312 338.933594 478.9375 339.5625 481.597656 339.5625 C 490.101562 339.5625 497.855469 335.746094 497.855469 325.855469 C 497.855469 310.769531 464.585938 312.027344 464.585938 292.050781 C 464.585938 279.183594 476.488281 272.910156 487.976562 272.910156 C 492.4375 272.910156 499.242188 274.300781 503.714844 276.3125 L 503.0625 290.882812 L 501.894531 290.882812 L 497.757812 279.078125 C 494.144531 277.6875 490.640625 277.054688 487.019531 277.054688 C 480.324219 277.054688 474.152344 282.277344 474.152344 289.398438 C 474.152344 306.089844 507.433594 301.835938 507.433594 323.835938 C 507.433594 333.082031 500.511719 343.707031 479.566406 343.707031 C 474.472656 343.707031 469.910156 343.078125 463.835938 340.730469 L 465.65625 323.414062 "
     id="path12" />
  <path
     fill-rule="nonzero"
     fill="rgb(0%, 34.901428%, 50.196838%)"
     fill-opacity="1"
     d="M 528.71875 340.941406 L 536.902344 338.183594 C 539.566406 337.226562 539.894531 336.796875 539.984375 328.609375 C 540.105469 322.246094 540.304688 315.757812 540.304688 309.378906 C 540.304688 303.003906 540.105469 296.511719 539.984375 290.148438 C 539.792969 280.148438 539.675781 279.40625 537.652344 278.65625 L 528.71875 275.679688 L 528.71875 274.195312 C 533.835938 274.617188 539.042969 275.050781 544.996094 275.050781 C 550.300781 275.050781 555.515625 274.617188 560.828125 274.195312 L 560.828125 275.679688 L 551.898438 278.65625 C 549.878906 279.40625 549.773438 280.148438 549.5625 290.148438 C 549.445312 296.511719 549.234375 303.003906 549.234375 309.378906 C 549.234375 315.757812 549.445312 322.246094 549.5625 328.609375 C 549.667969 336.796875 549.980469 337.226562 552.644531 338.183594 L 560.828125 340.941406 L 560.828125 342.421875 C 555.816406 342.015625 549.667969 341.597656 544.996094 341.597656 C 539.675781 341.597656 533.507812 342.015625 528.71875 342.421875 L 528.71875 340.941406 "
     id="path13" />
  <path
     fill-rule="nonzero"
     fill="rgb(0%, 34.901428%, 50.196838%)"
     fill-opacity="1"
     d="M 575.960938 274.195312 C 585.210938 274.617188 594.335938 275.050781 603.601562 275.050781 C 612.84375 275.050781 621.992188 274.617188 631.234375 274.195312 L 631.234375 292.261719 L 629.742188 292.261719 L 626.554688 283.761719 C 625.070312 280.148438 623.996094 279.722656 608.058594 279.722656 L 608.058594 326.066406 C 608.058594 331.378906 608.269531 334.144531 608.914062 335.632812 C 609.539062 337.015625 611.773438 338.292969 619.863281 340.941406 L 619.863281 342.421875 C 614.855469 342.015625 610.183594 341.597656 603.601562 341.597656 C 597.011719 341.597656 592.332031 342.015625 587.328125 342.421875 L 587.328125 340.941406 C 595.410156 338.292969 597.746094 337.015625 598.273438 335.632812 C 598.914062 334.144531 599.125 331.378906 599.125 326.066406 L 599.125 279.722656 C 583.1875 279.722656 582.113281 280.148438 580.632812 283.761719 L 577.445312 292.261719 L 575.960938 292.261719 L 575.960938 274.195312 "
     id="path14" />
  <path
     fill-rule="nonzero"
     fill="rgb(0%, 34.901428%, 50.196838%)"
     fill-opacity="1"
     d="M 682.851562 268.226562 C 680.304688 268.226562 677.851562 265.65625 677.851562 262.898438 C 677.851562 260.5625 680.410156 258.007812 682.851562 258.007812 C 685.515625 258.007812 688.058594 260.445312 688.058594 262.898438 C 688.058594 265.757812 685.613281 268.226562 682.851562 268.226562 Z M 669.992188 287.457031 L 657.765625 315.617188 L 681.683594 315.617188 Z M 661.808594 268.226562 C 659.132812 268.226562 656.8125 265.65625 656.8125 262.898438 C 656.8125 260.5625 659.25 258.007812 661.808594 258.007812 C 664.46875 258.007812 667.015625 260.445312 667.015625 262.898438 C 667.015625 265.757812 664.5625 268.226562 661.808594 268.226562 Z M 635.011719 340.914062 C 637.578125 339.964844 640.558594 338.796875 643.101562 337.410156 C 652.351562 315.617188 663.828125 291.171875 671.476562 272.046875 L 673.8125 272.046875 C 682.324219 294.148438 691.886719 316.261719 700.910156 337.828125 L 709.847656 340.914062 L 709.847656 342.394531 C 704.222656 341.984375 698.691406 341.566406 693.054688 341.566406 C 688.265625 341.566406 683.597656 341.984375 678.808594 342.394531 L 678.808594 340.914062 C 681.460938 340.28125 686.050781 338.90625 689.226562 337.628906 C 687.949219 333.160156 684.554688 323.164062 683.070312 319.972656 C 678.609375 319.871094 674.035156 319.765625 669.558594 319.765625 C 665.101562 319.765625 660.742188 319.871094 656.285156 319.972656 C 653.410156 325.402344 651.707031 331.664062 650.226562 337.628906 L 659.367188 340.914062 L 659.367188 342.394531 C 655.210938 341.984375 651.066406 341.566406 646.8125 341.566406 C 642.890625 341.566406 638.957031 341.984375 635.011719 342.394531 L 635.011719 340.914062 "
     id="path15" />
  <path
     fill-rule="nonzero"
     fill="rgb(0%, 34.901428%, 50.196838%)"
     fill-opacity="1"
     d="M 711.476562 274.195312 C 720.710938 274.617188 729.855469 275.050781 739.113281 275.050781 C 748.355469 275.050781 757.507812 274.617188 766.746094 274.195312 L 766.746094 292.261719 L 765.246094 292.261719 L 762.074219 283.761719 C 760.589844 280.148438 759.511719 279.722656 743.566406 279.722656 L 743.566406 326.066406 C 743.566406 331.378906 743.785156 334.144531 744.417969 335.632812 C 745.0625 337.015625 747.289062 338.292969 755.363281 340.941406 L 755.363281 342.421875 C 750.371094 342.015625 745.703125 341.597656 739.113281 341.597656 C 732.519531 341.597656 727.847656 342.015625 722.851562 342.421875 L 722.851562 340.941406 C 730.917969 338.292969 733.261719 337.015625 733.785156 335.632812 C 734.417969 334.144531 734.644531 331.378906 734.644531 326.066406 L 734.644531 279.722656 C 718.703125 279.722656 717.628906 280.148438 716.144531 283.761719 L 712.957031 292.261719 L 711.476562 292.261719 L 711.476562 274.195312 "
     id="path16" />
  <path
     fill-rule="nonzero"
     fill="rgb(0%, 34.901428%, 50.196838%)"
     fill-opacity="1"
     d="M 56.15625 173.757812 C 56.15625 171.855469 55.675781 171.144531 50.339844 169.125 L 43.21875 166.40625 L 43.21875 164.730469 C 48.917969 164.964844 54.613281 165.679688 60.3125 165.679688 C 65.648438 165.679688 70.871094 164.964844 76.085938 164.730469 L 76.085938 166.40625 L 68.613281 169.96875 C 66.480469 171.027344 66.128906 172.207031 66.128906 174.707031 L 66.128906 192.980469 C 66.128906 194.171875 66.246094 196.191406 66.363281 198.316406 C 61.855469 199.753906 52 201.644531 44.046875 201.644531 C 16.992188 201.644531 0.363281 185.855469 0.363281 163.554688 C 0.363281 136.355469 25.769531 122.601562 46.777344 122.601562 C 53.308594 122.601562 58.527344 123.1875 63.628906 124.261719 C 63.511719 127.347656 63.398438 130.425781 63.398438 133.402344 C 63.398438 136.839844 63.511719 140.28125 63.628906 143.726562 L 61.96875 143.726562 C 60.3125 138.625 58.058594 132.085938 56.273438 129.832031 C 55.082031 128.289062 47.96875 127.230469 43.332031 127.230469 C 26.601562 127.230469 12.472656 138.730469 12.472656 162.46875 C 12.472656 182.902344 24.582031 197.011719 42.273438 197.011719 C 47.246094 197.011719 51.765625 196.425781 55.910156 195.011719 C 56.039062 193.214844 56.15625 191.449219 56.15625 190.621094 L 56.15625 173.757812 "
     id="path17" />
  <path
     fill-rule="nonzero"
     fill="rgb(0%, 34.901428%, 50.196838%)"
     fill-opacity="1"
     d="M 154.101562 165.214844 C 154.101562 145.386719 148.636719 126.515625 129.0625 126.515625 C 112.554688 126.515625 103.65625 140.28125 103.65625 157.140625 C 103.65625 181.597656 112.320312 197.734375 129.660156 197.734375 C 147.6875 197.734375 154.101562 181.347656 154.101562 165.214844 Z M 91.558594 162.84375 C 91.558594 139.21875 106.390625 122.601562 130.359375 122.601562 C 152.210938 122.601562 166.210938 137.925781 166.210938 159.515625 C 166.210938 183.019531 152.082031 201.644531 128.472656 201.644531 C 103.773438 201.644531 91.558594 182.0625 91.558594 162.84375 "
     id="path18" />
  <path
     fill-rule="nonzero"
     fill="rgb(0%, 34.901428%, 50.196838%)"
     fill-opacity="1"
     d="M 192.988281 141.835938 C 192.988281 130.675781 192.628906 129.832031 190.019531 129.015625 L 180.0625 125.671875 L 180.0625 124.027344 C 189.90625 124.496094 198.933594 124.984375 207.945312 124.984375 C 219.226562 124.984375 230.390625 124.496094 240.828125 124.027344 C 240.710938 126.980469 240.464844 131.265625 240.464844 133.042969 C 240.464844 134.820312 240.710938 138.867188 240.828125 141.59375 L 239.171875 141.59375 L 236.074219 132.679688 C 234.886719 129.363281 233.953125 129.363281 220.289062 129.363281 C 213.414062 129.363281 207.945312 129.480469 203.554688 129.597656 C 203.3125 133.753906 202.964844 138.148438 202.964844 143.121094 L 202.964844 157.726562 L 215.300781 157.726562 C 229.664062 157.726562 230.972656 157.492188 232.046875 154.890625 L 235.128906 146.457031 L 236.789062 146.457031 C 236.671875 150.96875 236.542969 155.472656 236.542969 159.867188 C 236.542969 164.730469 236.671875 169.253906 236.789062 174.226562 L 235.128906 174.226562 L 232.046875 165.214844 C 230.972656 162.597656 229.664062 162.351562 215.300781 162.351562 L 202.964844 162.351562 L 202.964844 178.511719 C 202.964844 183.964844 203.3125 189.417969 203.554688 194.40625 C 209.136719 194.53125 214.71875 194.890625 220.054688 194.890625 C 232.746094 194.890625 234.535156 194.757812 235.714844 193.355469 C 237.152344 191.5625 238.445312 187.761719 240.59375 180.765625 L 242.253906 180.765625 C 242.007812 184.199219 241.542969 187.761719 241.542969 191.214844 L 241.542969 200.222656 C 235.363281 199.753906 217.09375 199.285156 210.4375 199.285156 C 199.992188 199.285156 188.609375 199.753906 180.0625 200.222656 L 180.0625 198.5625 L 189.191406 195.492188 C 192.519531 194.40625 192.988281 193.9375 192.988281 184.792969 L 192.988281 141.835938 "
     id="path19" />
  <path
     fill-rule="nonzero"
     fill="rgb(0%, 34.901428%, 50.196838%)"
     fill-opacity="1"
     d="M 261.433594 124.027344 C 271.769531 124.496094 281.964844 124.984375 292.296875 124.984375 C 302.621094 124.984375 312.824219 124.496094 323.160156 124.027344 L 323.160156 144.203125 L 321.503906 144.203125 L 317.929688 134.710938 C 316.269531 130.675781 315.078125 130.191406 297.28125 130.191406 L 297.28125 181.945312 C 297.28125 187.878906 297.503906 190.960938 298.230469 192.632812 C 298.941406 194.171875 301.425781 195.59375 310.453125 198.5625 L 310.453125 200.222656 C 304.871094 199.753906 299.652344 199.285156 292.296875 199.285156 C 284.929688 199.285156 279.707031 199.753906 274.128906 200.222656 L 274.128906 198.5625 C 283.152344 195.59375 285.769531 194.171875 286.363281 192.632812 C 287.078125 190.960938 287.308594 187.878906 287.308594 181.945312 L 287.308594 130.191406 C 269.503906 130.191406 268.324219 130.675781 266.652344 134.710938 L 263.09375 144.203125 L 261.433594 144.203125 L 261.433594 124.027344 "
     id="path20" />
  <path
     fill-rule="nonzero"
     fill="rgb(0%, 34.901428%, 50.196838%)"
     fill-opacity="1"
     d="M 338.761719 198.5625 L 347.902344 195.492188 C 351.222656 194.40625 351.699219 193.9375 351.699219 184.792969 L 351.699219 141.835938 C 351.699219 130.675781 351.339844 129.832031 348.730469 129.015625 L 338.761719 125.671875 L 338.761719 124.027344 C 344.808594 124.496094 350.640625 124.984375 356.21875 124.984375 C 362.257812 124.984375 368.308594 124.496094 374.605469 124.027344 L 374.605469 125.671875 L 365.710938 128.640625 C 362.148438 129.832031 361.652344 130.675781 361.652344 136.488281 L 361.652344 157.726562 L 396.792969 157.726562 L 396.792969 136.488281 C 396.792969 130.675781 396.324219 129.832031 392.765625 128.640625 L 383.859375 125.671875 L 383.859375 124.027344 C 390.164062 124.496094 396.210938 124.984375 402.269531 124.984375 C 407.835938 124.984375 413.65625 124.496094 419.71875 124.027344 L 419.71875 125.671875 L 409.742188 129.015625 C 407.128906 129.832031 406.777344 130.675781 406.777344 141.835938 L 406.777344 184.792969 C 406.777344 193.9375 407.242188 194.40625 410.5625 195.492188 L 419.71875 198.5625 L 419.71875 200.222656 C 414.015625 199.753906 407.128906 199.285156 401.0625 199.285156 C 396.917969 199.285156 388.96875 199.753906 383.859375 200.222656 L 383.859375 198.5625 L 393.355469 195.351562 C 396.441406 194.40625 396.792969 191.683594 396.792969 176.25 L 396.792969 162.351562 L 361.652344 162.351562 L 361.652344 176.25 C 361.652344 191.683594 362.035156 194.40625 365.117188 195.351562 L 374.605469 198.5625 L 374.605469 200.222656 C 369.507812 199.753906 361.558594 199.285156 357.390625 199.285156 C 351.339844 199.285156 344.460938 199.753906 338.761719 200.222656 L 338.761719 198.5625 "
     id="path21" />
  <path
     fill-rule="nonzero"
     fill="rgb(0%, 34.901428%, 50.196838%)"
     fill-opacity="1"
     d="M 446.757812 141.835938 C 446.757812 130.675781 446.40625 129.832031 443.78125 129.015625 L 433.8125 125.671875 L 433.8125 124.027344 C 443.660156 124.496094 452.691406 124.984375 461.707031 124.984375 C 472.988281 124.984375 484.152344 124.496094 494.59375 124.027344 C 494.476562 126.980469 494.226562 131.265625 494.226562 133.042969 C 494.226562 134.820312 494.476562 138.867188 494.59375 141.59375 L 492.929688 141.59375 L 489.847656 132.679688 C 488.660156 129.363281 487.703125 129.363281 474.050781 129.363281 C 467.175781 129.363281 461.707031 129.480469 457.324219 129.597656 C 457.070312 133.753906 456.722656 138.148438 456.722656 143.121094 L 456.722656 157.726562 L 469.0625 157.726562 C 483.441406 157.726562 484.734375 157.492188 485.804688 154.890625 L 488.894531 146.457031 L 490.550781 146.457031 C 490.433594 150.96875 490.316406 155.472656 490.316406 159.867188 C 490.316406 164.730469 490.433594 169.253906 490.550781 174.226562 L 488.894531 174.226562 L 485.804688 165.214844 C 484.734375 162.597656 483.441406 162.351562 469.0625 162.351562 L 456.722656 162.351562 L 456.722656 178.511719 C 456.722656 183.964844 457.070312 189.417969 457.324219 194.40625 C 462.898438 194.53125 468.480469 194.890625 473.816406 194.890625 C 486.507812 194.890625 488.285156 194.757812 489.484375 193.355469 C 490.914062 191.5625 492.210938 187.761719 494.359375 180.765625 L 496.015625 180.765625 C 495.769531 184.199219 495.292969 187.761719 495.292969 191.214844 L 495.292969 200.222656 C 489.128906 199.753906 470.839844 199.285156 464.203125 199.285156 C 453.761719 199.285156 442.378906 199.753906 433.8125 200.222656 L 433.8125 198.5625 L 442.960938 195.492188 C 446.269531 194.40625 446.757812 193.9375 446.757812 184.792969 L 446.757812 141.835938 "
     id="path22" />
  <path
     fill-rule="nonzero"
     fill="rgb(0%, 34.901428%, 50.196838%)"
     fill-opacity="1"
     d="M 1.472656 416.796875 L 6.0625 415.242188 C 7.742188 414.703125 7.976562 414.46875 7.976562 409.886719 L 7.976562 388.304688 C 7.976562 382.699219 7.800781 382.265625 6.496094 381.855469 L 1.472656 380.175781 L 1.472656 379.371094 C 6.726562 379.589844 11.550781 379.824219 16.441406 379.824219 C 21.335938 379.824219 26.230469 379.589844 31.0625 379.371094 C 30.992188 380.722656 30.933594 382.148438 30.933594 383.515625 C 30.933594 385.195312 30.992188 386.925781 31.0625 388.597656 L 30.222656 388.597656 L 28.796875 384.242188 C 28.132812 382.449219 27.417969 382.449219 25.75 382.449219 L 13.289062 382.449219 C 13.160156 384.835938 12.984375 387.226562 12.984375 389.597656 L 12.984375 396.289062 L 18.238281 396.289062 C 25.445312 396.289062 26.113281 396.164062 26.648438 394.851562 L 28.203125 390.625 L 29.027344 390.625 C 28.972656 392.882812 28.914062 395.160156 28.914062 397.363281 C 28.914062 399.804688 28.972656 402.066406 29.027344 404.558594 L 28.203125 404.558594 L 26.648438 400.050781 C 26.113281 398.734375 25.445312 398.617188 18.238281 398.617188 L 12.984375 398.617188 L 12.984375 409.886719 C 12.984375 414.46875 13.230469 414.703125 15.019531 415.242188 L 19.605469 416.796875 L 19.605469 417.621094 C 16.382812 417.390625 13.886719 417.144531 10.371094 417.144531 C 7.4375 417.144531 4.578125 417.390625 1.472656 417.621094 L 1.472656 416.796875 "
     id="path23" />
  <path
     fill-rule="nonzero"
     fill="rgb(0%, 34.901428%, 50.196838%)"
     fill-opacity="1"
     d="M 53.902344 396.753906 L 57.953125 396.753906 C 63.5 396.753906 68.625 395.875 68.625 389.308594 C 68.625 384.050781 64.996094 381.789062 59.390625 381.789062 C 57.476562 381.789062 55.6875 381.855469 53.902344 381.855469 Z M 42.390625 416.796875 L 46.976562 415.242188 C 48.644531 414.703125 48.890625 414.46875 48.890625 409.886719 L 48.890625 388.304688 C 48.890625 382.699219 48.703125 382.265625 47.398438 381.855469 L 42.390625 380.175781 L 42.390625 379.371094 C 44.597656 379.589844 47.398438 379.824219 50.621094 379.824219 C 53.714844 379.824219 57.125 379.371094 61.351562 379.371094 C 69.222656 379.371094 74.347656 382.566406 74.347656 388.546875 C 74.347656 394.558594 70.050781 397.421875 64.574219 398.296875 L 72.796875 410.59375 C 76.261719 415.789062 76.554688 416.195312 79.894531 416.796875 L 79.894531 417.621094 C 78.527344 417.507812 77.105469 417.390625 75.726562 417.390625 C 74.300781 417.390625 72.796875 417.507812 71.3125 417.621094 C 67.492188 411.191406 62.179688 403.566406 58.492188 398.734375 L 53.902344 398.734375 L 53.902344 405.585938 C 53.902344 413.335938 54.074219 414.703125 55.632812 415.183594 L 60.40625 416.796875 L 60.40625 417.621094 C 57.835938 417.390625 53.832031 417.144531 51.753906 417.144531 C 48.703125 417.144531 45.25 417.390625 42.390625 417.621094 L 42.390625 416.796875 "
     id="path24" />
  <path
     fill-rule="nonzero"
     fill="rgb(0%, 34.901428%, 50.196838%)"
     fill-opacity="1"
     d="M 105.875 386.808594 L 99.023438 402.609375 L 112.4375 402.609375 Z M 86.261719 416.796875 C 87.683594 416.257812 89.363281 415.59375 90.789062 414.835938 C 95.984375 402.609375 102.421875 388.886719 106.71875 378.152344 L 108.027344 378.152344 C 112.789062 390.558594 118.160156 402.960938 123.226562 415.054688 L 128.238281 416.796875 L 128.238281 417.621094 C 125.070312 417.390625 121.980469 417.144531 118.816406 417.144531 C 116.128906 417.144531 113.515625 417.390625 110.828125 417.621094 L 110.828125 416.796875 C 112.308594 416.429688 114.878906 415.652344 116.667969 414.949219 C 115.953125 412.441406 114.050781 406.851562 113.210938 405.046875 C 110.699219 404.988281 108.144531 404.929688 105.632812 404.929688 C 103.132812 404.929688 100.691406 404.988281 98.191406 405.046875 C 96.570312 408.082031 95.625 411.601562 94.796875 414.949219 L 99.910156 416.796875 L 99.910156 417.621094 C 97.585938 417.390625 95.261719 417.144531 92.878906 417.144531 C 90.671875 417.144531 88.46875 417.390625 86.261719 417.621094 L 86.261719 416.796875 "
     id="path25" />
  <g
     clip-path="url(#clip-1)"
     id="g26">
    <path
       fill-rule="nonzero"
       fill="rgb(0%, 34.901428%, 50.196838%)"
       fill-opacity="1"
       d="M 176.625 380.464844 L 172.628906 381.914062 C 171.324219 382.382812 170.726562 382.992188 170.65625 384.050781 C 170.480469 388.886719 170 399.441406 170 402.898438 C 170 405.363281 170 412.207031 170.117188 419 L 168.695312 419 C 164.875 413.335938 160.765625 407.90625 156.714844 402.417969 L 144.605469 386.144531 L 144.488281 386.144531 L 144.488281 392.824219 C 144.488281 400.691406 144.605469 412.441406 144.78125 413.570312 C 144.96875 414.527344 145.375 415.011719 147.117188 415.535156 L 151.039062 416.796875 L 151.039062 417.621094 C 148.425781 417.390625 145.75 417.144531 143.109375 417.144531 C 140.554688 417.144531 138.042969 417.390625 135.484375 417.621094 L 135.484375 416.796875 L 140.015625 415.054688 C 140.847656 414.777344 141.382812 414.234375 141.441406 413.6875 C 141.6875 411.800781 142.097656 402.898438 142.097656 395.261719 L 142.097656 383.457031 L 141.324219 382.265625 C 139.480469 381.4375 137.621094 380.78125 135.71875 380.175781 L 135.71875 379.371094 C 137.621094 379.589844 139.535156 379.824219 141.441406 379.824219 C 143.226562 379.824219 145.023438 379.589844 146.8125 379.371094 C 147.945312 381.4375 149.195312 383.351562 150.628906 385.253906 L 167.503906 407.90625 L 167.621094 407.789062 L 167.621094 393.359375 C 167.621094 390.496094 167.5625 387.554688 167.386719 384.648438 C 167.269531 382.992188 166.789062 382.507812 165.0625 381.789062 L 161.128906 380.175781 L 161.128906 379.371094 C 163.570312 379.589844 166.066406 379.824219 168.519531 379.824219 C 171.195312 379.824219 173.878906 379.589844 176.625 379.371094 L 176.625 380.464844 "
       id="path26" />
  </g>
  <path
     fill-rule="nonzero"
     fill="rgb(0%, 34.901428%, 50.196838%)"
     fill-opacity="1"
     d="M 214.152344 416.796875 C 217.492188 415.847656 218.566406 415.535156 218.566406 415.128906 C 218.566406 414.660156 218.085938 414.285156 217.550781 413.6875 L 202.523438 397.363281 L 215.097656 385.910156 C 217.257812 383.949219 218.449219 382.699219 218.449219 382.101562 C 218.449219 381.4375 216.777344 381.074219 214.269531 380.175781 L 214.269531 379.371094 C 216.835938 379.589844 219.464844 379.824219 222.027344 379.824219 C 224.238281 379.824219 226.449219 379.589844 228.644531 379.371094 L 228.644531 380.175781 C 227.03125 380.597656 224.472656 381.265625 222.144531 383.292969 L 208.015625 395.636719 L 225.546875 414.285156 C 225.898438 414.660156 226.800781 415.433594 226.972656 415.476562 C 227.578125 415.789062 229.179688 416.429688 230.675781 416.796875 L 230.675781 417.621094 C 227.8125 417.390625 224.824219 417.144531 221.910156 417.144531 C 219.289062 417.144531 216.71875 417.390625 214.152344 417.621094 Z M 189.523438 416.796875 L 194.125 415.242188 C 195.609375 414.703125 195.796875 414.46875 195.84375 409.886719 C 195.914062 406.296875 196.03125 402.667969 196.03125 399.089844 C 196.03125 395.519531 195.914062 391.875 195.84375 388.304688 C 195.726562 382.699219 195.679688 382.265625 194.535156 381.855469 L 189.523438 380.175781 L 189.523438 379.371094 C 192.386719 379.589844 195.304688 379.824219 198.65625 379.824219 C 201.636719 379.824219 204.554688 379.589844 207.53125 379.371094 L 207.53125 380.175781 L 202.523438 381.855469 C 201.390625 382.265625 201.332031 382.699219 201.214844 388.304688 C 201.15625 391.875 201.039062 395.519531 201.039062 399.089844 C 201.039062 402.667969 201.15625 406.296875 201.214844 409.886719 C 201.273438 414.46875 201.445312 414.703125 202.941406 415.242188 L 207.53125 416.796875 L 207.53125 417.621094 C 204.742188 417.390625 201.273438 417.144531 198.65625 417.144531 C 195.679688 417.144531 192.210938 417.390625 189.523438 417.621094 L 189.523438 416.796875 "
     id="path27" />
  <path
     fill-rule="nonzero"
     fill="rgb(0%, 34.901428%, 50.196838%)"
     fill-opacity="1"
     d="M 240.332031 416.796875 L 244.921875 415.242188 C 246.589844 414.703125 246.835938 414.46875 246.835938 409.886719 L 246.835938 388.304688 C 246.835938 382.699219 246.648438 382.265625 245.339844 381.855469 L 240.332031 380.175781 L 240.332031 379.371094 C 245.574219 379.589844 250.40625 379.824219 255.300781 379.824219 C 260.183594 379.824219 265.074219 379.589844 269.910156 379.371094 C 269.851562 380.722656 269.792969 382.148438 269.792969 383.515625 C 269.792969 385.195312 269.851562 386.925781 269.910156 388.597656 L 269.066406 388.597656 L 267.632812 384.242188 C 266.976562 382.449219 266.265625 382.449219 264.597656 382.449219 L 252.136719 382.449219 C 252.007812 384.835938 251.847656 387.226562 251.847656 389.597656 L 251.847656 396.289062 L 257.089844 396.289062 C 264.292969 396.289062 264.957031 396.164062 265.496094 394.851562 L 267.046875 390.625 L 267.878906 390.625 C 267.820312 392.882812 267.761719 395.160156 267.761719 397.363281 C 267.761719 399.804688 267.820312 402.066406 267.878906 404.558594 L 267.046875 404.558594 L 265.496094 400.050781 C 264.957031 398.734375 264.292969 398.617188 257.089844 398.617188 L 251.847656 398.617188 L 251.847656 409.886719 C 251.847656 414.46875 252.078125 414.703125 253.878906 415.242188 L 258.453125 416.796875 L 258.453125 417.621094 C 255.242188 417.390625 252.730469 417.144531 249.21875 417.144531 C 246.300781 417.144531 243.425781 417.390625 240.332031 417.621094 L 240.332031 416.796875 "
     id="path28" />
  <path
     fill-rule="nonzero"
     fill="rgb(0%, 34.901428%, 50.196838%)"
     fill-opacity="1"
     d="M 322.90625 380.175781 L 320.277344 381.203125 C 318.738281 381.855469 317.898438 382.382812 317.839844 383.640625 C 317.722656 386.984375 317.839844 391.875 317.722656 402.476562 C 317.605469 414.050781 311.929688 418.339844 303.054688 418.339844 C 294.402344 418.339844 288.378906 414.585938 288.378906 405.476562 L 288.378906 388.710938 C 288.378906 383.699219 288.203125 382.507812 286.53125 381.855469 L 282.234375 380.175781 L 282.234375 379.371094 C 285.167969 379.589844 287.96875 379.824219 290.773438 379.824219 C 293.925781 379.824219 297.027344 379.589844 300.183594 379.371094 L 300.183594 380.175781 L 297.4375 381.203125 C 294.167969 382.449219 293.691406 382.699219 293.574219 384.777344 C 293.386719 388.304688 293.386719 393.40625 293.386719 402.609375 C 293.386719 410.242188 295.113281 415.242188 304.609375 415.242188 C 310.867188 415.242188 314.628906 411.367188 314.628906 404.222656 C 314.628906 396.871094 314.570312 387.394531 314.078125 383.292969 C 313.960938 382.207031 313.074219 381.730469 311.464844 381.203125 L 308.179688 380.175781 L 308.179688 379.371094 C 310.738281 379.589844 313.308594 379.824219 315.9375 379.824219 C 318.199219 379.824219 320.523438 379.589844 322.90625 379.371094 L 322.90625 380.175781 "
     id="path29" />
  <path
     fill-rule="nonzero"
     fill="rgb(0%, 34.901428%, 50.196838%)"
     fill-opacity="1"
     d="M 345.558594 396.753906 L 349.621094 396.753906 C 355.152344 396.753906 360.28125 395.875 360.28125 389.308594 C 360.28125 384.050781 356.652344 381.789062 351.027344 381.789062 C 349.132812 381.789062 347.34375 381.855469 345.558594 381.855469 Z M 334.039062 416.796875 L 338.644531 415.242188 C 340.304688 414.703125 340.546875 414.46875 340.546875 409.886719 L 340.546875 388.304688 C 340.546875 382.699219 340.371094 382.265625 339.054688 381.855469 L 334.039062 380.175781 L 334.039062 379.371094 C 336.257812 379.589844 339.054688 379.824219 342.269531 379.824219 C 345.363281 379.824219 348.769531 379.371094 353.007812 379.371094 C 360.886719 379.371094 366.015625 382.566406 366.015625 388.546875 C 366.015625 394.558594 361.714844 397.421875 356.226562 398.296875 L 364.457031 410.59375 C 367.921875 415.789062 368.214844 416.195312 371.550781 416.796875 L 371.550781 417.621094 C 370.179688 417.507812 368.746094 417.390625 367.375 417.390625 C 365.957031 417.390625 364.457031 417.507812 362.96875 417.621094 C 359.144531 411.191406 353.851562 403.566406 350.148438 398.734375 L 345.558594 398.734375 L 345.558594 405.585938 C 345.558594 413.335938 345.742188 414.703125 347.285156 415.183594 L 352.058594 416.796875 L 352.058594 417.621094 C 349.492188 417.390625 345.5 417.144531 343.410156 417.144531 C 340.371094 417.144531 336.917969 417.390625 334.039062 417.621094 L 334.039062 416.796875 "
     id="path30" />
  <path
     fill-rule="nonzero"
     fill="rgb(0%, 34.901428%, 50.196838%)"
     fill-opacity="1"
     d="M 380.386719 379.371094 C 385.574219 379.589844 390.699219 379.824219 395.898438 379.824219 C 401.085938 379.824219 406.203125 379.589844 411.398438 379.371094 L 411.398438 389.480469 L 410.5625 389.480469 L 408.761719 384.71875 C 407.933594 382.699219 407.339844 382.449219 398.40625 382.449219 L 398.40625 408.445312 C 398.40625 411.425781 398.523438 412.984375 398.875 413.816406 C 399.226562 414.585938 400.480469 415.316406 405.023438 416.796875 L 405.023438 417.621094 C 402.210938 417.390625 399.59375 417.144531 395.898438 417.144531 C 392.1875 417.144531 389.582031 417.390625 386.761719 417.621094 L 386.761719 416.796875 C 391.304688 415.316406 392.617188 414.585938 392.910156 413.816406 C 393.269531 412.984375 393.386719 411.425781 393.386719 408.445312 L 393.386719 382.449219 C 384.425781 382.449219 383.859375 382.699219 383.015625 384.71875 L 381.234375 389.480469 L 380.386719 389.480469 L 380.386719 379.371094 "
     id="path31" />
  <path
     fill-rule="nonzero"
     fill="rgb(0%, 34.901428%, 50.196838%)"
     fill-opacity="1"
     d="M 463.710938 386.808594 L 456.855469 402.609375 L 470.269531 402.609375 Z M 444.105469 416.796875 C 445.527344 416.257812 447.199219 415.59375 448.621094 414.835938 C 453.804688 402.609375 460.25 388.886719 464.546875 378.152344 L 465.855469 378.152344 C 470.632812 390.558594 475.988281 402.960938 481.070312 415.054688 L 486.074219 416.796875 L 486.074219 417.621094 C 482.921875 417.390625 479.824219 417.144531 476.644531 417.144531 C 473.960938 417.144531 471.34375 417.390625 468.65625 417.621094 L 468.65625 416.796875 C 470.164062 416.429688 472.71875 415.652344 474.511719 414.949219 C 473.796875 412.441406 471.882812 406.851562 471.050781 405.046875 C 468.539062 404.988281 465.972656 404.929688 463.476562 404.929688 C 460.984375 404.929688 458.519531 404.988281 456.019531 405.046875 C 454.410156 408.082031 453.453125 411.601562 452.609375 414.949219 L 457.75 416.796875 L 457.75 417.621094 C 455.421875 417.390625 453.101562 417.144531 450.710938 417.144531 C 448.503906 417.144531 446.296875 417.390625 444.105469 417.621094 L 444.105469 416.796875 "
     id="path32" />
  <path
     fill-rule="nonzero"
     fill="rgb(0%, 34.901428%, 50.196838%)"
     fill-opacity="1"
     d="M 495.066406 416.796875 L 498.234375 415.652344 C 500.320312 414.894531 500.554688 414.585938 500.859375 412.632812 C 502.355469 403.308594 503.898438 387.988281 503.898438 383.574219 C 503.898438 382.507812 503.476562 381.855469 502.355469 381.4375 L 498.949219 380.175781 L 498.949219 379.371094 C 502.773438 379.589844 506.773438 379.765625 510.34375 379.824219 C 514.03125 389.1875 518.15625 398.414062 522.332031 407.671875 C 527.042969 398.53125 531.164062 389.1875 535.089844 379.824219 C 538.613281 379.765625 542.535156 379.589844 546.542969 379.371094 L 546.542969 380.175781 L 543.914062 381.203125 C 541.472656 382.148438 540.996094 382.507812 540.996094 383.574219 C 540.996094 387.695312 543.625 409.449219 544.277344 413.21875 C 544.59375 415.054688 545.292969 415.476562 546.71875 415.90625 L 549.9375 416.796875 L 549.9375 417.621094 C 547.195312 417.390625 544.394531 417.144531 541.589844 417.144531 C 538.789062 417.144531 536.042969 417.390625 533.300781 417.621094 L 533.300781 416.796875 L 536.230469 415.789062 C 538.253906 415.128906 538.847656 414.285156 538.847656 413.746094 C 538.847656 410.765625 536.042969 388.113281 535.636719 385.195312 L 535.507812 385.195312 C 530.265625 396.464844 525.734375 406.734375 521.261719 417.621094 L 520.480469 417.621094 C 516.242188 406.296875 511.230469 395.4375 506.394531 384.542969 L 506.277344 384.542969 C 505.507812 392.414062 504.390625 409.214844 504.390625 413.21875 C 504.390625 414.585938 504.925781 415.183594 506.582031 415.730469 L 509.691406 416.796875 L 509.691406 417.621094 C 507.121094 417.390625 504.613281 417.144531 502.054688 417.144531 C 499.71875 417.144531 497.402344 417.390625 495.066406 417.621094 L 495.066406 416.796875 "
     id="path33" />
  <path
     fill-rule="nonzero"
     fill="rgb(0%, 34.901428%, 50.196838%)"
     fill-opacity="1"
     d="M 584.46875 416.796875 L 587.621094 415.652344 C 589.707031 414.894531 589.941406 414.585938 590.246094 412.632812 C 591.738281 403.308594 593.28125 387.988281 593.28125 383.574219 C 593.28125 382.507812 592.859375 381.855469 591.738281 381.4375 L 588.328125 380.175781 L 588.328125 379.371094 C 592.148438 379.589844 596.152344 379.765625 599.726562 379.824219 C 603.429688 389.1875 607.539062 398.414062 611.710938 407.671875 C 616.421875 398.53125 620.550781 389.1875 624.480469 379.824219 C 627.996094 379.765625 631.933594 379.589844 635.925781 379.371094 L 635.925781 380.175781 L 633.3125 381.203125 C 630.859375 382.148438 630.378906 382.507812 630.378906 383.574219 C 630.378906 387.695312 632.996094 409.449219 633.660156 413.21875 C 633.953125 415.054688 634.679688 415.476562 636.097656 415.90625 L 639.324219 416.796875 L 639.324219 417.621094 C 636.578125 417.390625 633.777344 417.144531 630.976562 417.144531 C 628.171875 417.144531 625.429688 417.390625 622.683594 417.621094 L 622.683594 416.796875 L 625.613281 415.789062 C 627.632812 415.128906 628.230469 414.285156 628.230469 413.746094 C 628.230469 410.765625 625.429688 388.113281 625.007812 385.195312 L 624.902344 385.195312 C 619.648438 396.464844 615.105469 406.734375 610.632812 417.621094 L 609.863281 417.621094 C 605.636719 406.296875 600.613281 395.4375 595.777344 384.542969 L 595.660156 384.542969 C 594.894531 392.414062 593.761719 409.214844 593.761719 413.21875 C 593.761719 414.585938 594.296875 415.183594 595.980469 415.730469 L 599.070312 416.796875 L 599.070312 417.621094 C 596.503906 417.390625 594.003906 417.144531 591.433594 417.144531 C 589.113281 417.144531 586.789062 417.390625 584.46875 417.621094 L 584.46875 416.796875 "
     id="path34" />
  <path
     fill-rule="nonzero"
     fill="rgb(0%, 34.901428%, 50.196838%)"
     fill-opacity="1"
     d="M 666.941406 386.808594 L 660.078125 402.609375 L 673.515625 402.609375 Z M 647.324219 416.796875 C 648.761719 416.257812 650.433594 415.59375 651.855469 414.835938 C 657.050781 402.609375 663.488281 388.886719 667.785156 378.152344 L 669.09375 378.152344 C 673.855469 390.558594 679.238281 402.960938 684.296875 415.054688 L 689.320312 416.796875 L 689.320312 417.621094 C 686.136719 417.390625 683.042969 417.144531 679.894531 417.144531 C 677.210938 417.144531 674.566406 417.390625 671.894531 417.621094 L 671.894531 416.796875 C 673.378906 416.429688 675.949219 415.652344 677.734375 414.949219 C 677.019531 412.441406 675.117188 406.851562 674.289062 405.046875 C 671.789062 404.988281 669.210938 404.929688 666.710938 404.929688 C 664.199219 404.929688 661.761719 404.988281 659.25 405.046875 C 657.636719 408.082031 656.691406 411.601562 655.851562 414.949219 L 660.988281 416.796875 L 660.988281 417.621094 C 658.667969 417.390625 656.332031 417.144531 653.949219 417.144531 C 651.738281 417.144531 649.535156 417.390625 647.324219 417.621094 L 647.324219 416.796875 "
     id="path35" />
  <path
     fill-rule="nonzero"
     fill="rgb(0%, 34.901428%, 50.196838%)"
     fill-opacity="1"
     d="M 697.484375 416.796875 L 702.085938 415.242188 C 703.578125 414.703125 703.753906 414.46875 703.8125 409.886719 C 703.867188 406.296875 703.996094 402.667969 703.996094 399.089844 C 703.996094 395.519531 703.867188 391.875 703.8125 388.304688 C 703.703125 382.699219 703.625 382.265625 702.507812 381.855469 L 697.484375 380.175781 L 697.484375 379.371094 C 700.347656 379.589844 703.273438 379.824219 706.621094 379.824219 C 709.589844 379.824219 712.519531 379.589844 715.496094 379.371094 L 715.496094 380.175781 L 710.507812 381.855469 C 709.355469 382.265625 709.308594 382.699219 709.183594 388.304688 C 709.125 391.875 709.007812 395.519531 709.007812 399.089844 C 709.007812 402.667969 709.125 406.296875 709.183594 409.886719 C 709.238281 414.46875 709.414062 414.703125 710.898438 415.242188 L 715.496094 416.796875 L 715.496094 417.621094 C 712.695312 417.390625 709.238281 417.144531 706.621094 417.144531 C 703.625 417.144531 700.179688 417.390625 697.484375 417.621094 L 697.484375 416.796875 "
     id="path36" />
  <g
     clip-path="url(#clip-2)"
     id="g37">
    <path
       fill-rule="nonzero"
       fill="rgb(0%, 34.901428%, 50.196838%)"
       fill-opacity="1"
       d="M 768.25 380.464844 L 764.238281 381.914062 C 762.9375 382.382812 762.34375 382.992188 762.269531 384.050781 C 762.09375 388.886719 761.628906 399.441406 761.628906 402.898438 C 761.628906 405.363281 761.628906 412.207031 761.742188 419 L 760.308594 419 C 756.503906 413.335938 752.386719 407.90625 748.328125 402.417969 L 736.230469 386.144531 L 736.09375 386.144531 L 736.09375 392.824219 C 736.09375 400.691406 736.230469 412.441406 736.402344 413.570312 C 736.589844 414.527344 736.996094 415.011719 738.730469 415.535156 L 742.660156 416.796875 L 742.660156 417.621094 C 740.035156 417.390625 737.347656 417.144531 734.734375 417.144531 C 732.152344 417.144531 729.671875 417.390625 727.085938 417.621094 L 727.085938 416.796875 L 731.640625 415.054688 C 732.472656 414.777344 733.007812 414.234375 733.066406 413.6875 C 733.300781 411.800781 733.71875 402.898438 733.71875 395.261719 L 733.71875 383.457031 L 732.949219 382.265625 C 731.09375 381.4375 729.246094 380.78125 727.34375 380.175781 L 727.34375 379.371094 C 729.246094 379.589844 731.148438 379.824219 733.066406 379.824219 C 734.851562 379.824219 736.640625 379.589844 738.449219 379.371094 C 739.558594 381.4375 740.808594 383.351562 742.242188 385.253906 L 759.132812 407.90625 L 759.246094 407.789062 L 759.246094 393.359375 C 759.246094 390.496094 759.1875 387.554688 759 384.648438 C 758.882812 382.992188 758.402344 382.507812 756.679688 381.789062 L 752.753906 380.175781 L 752.753906 379.371094 C 755.1875 379.589844 757.695312 379.824219 760.148438 379.824219 C 762.835938 379.824219 765.503906 379.589844 768.25 379.371094 L 768.25 380.464844 "
       id="path37" />
  </g>
</svg>
