<?xml version="1.0" encoding="UTF-8"?>
<svg id="Ebene_2" data-name="Ebene 2" xmlns="http://www.w3.org/2000/svg" width="419.19" height="121.19" viewBox="0 0 419.19 121.19">
  <defs>
    <style>
      .cls-1 {
        fill: #ff5aff;
        stroke-width: 0px;
      }
    </style>
  </defs>
  <g id="Ebene_2-2" data-name="Ebene 2">
    <g>
      <g>
        <path class="cls-1" d="M54.78,35.27C54.78,15.77,40.54,0,14.59,0H0v20.69h12.73c10.85,0,17.47,5.93,17.47,15.43,0,10.51-7.63,15.94-16.28,15.94H0v20.18l43.5,46.46h30.09l-45.2-48.27c4.69-1.66,8.42-3.78,8.42-3.78,10.85-5.93,17.97-16.96,17.97-31.37M134.84,71.02h23.97V0h-26.85l-21.1,25.16L89.77,0h-26.85v8.21l48.01,51.49,23.9-25.75v37.08ZM158.82,79.26h-24.21c-1.58,11.48-11.59,20.33-23.73,20.33-13.24,0-23.97-10.52-23.97-23.49v-28.45s-23.97-25.71-23.97-25.71v57.31c0,22.69,21.47,41.08,47.95,41.08s47.95-18.39,47.95-41.08"/>
        <g>
          <path class="cls-1" d="M190.51,74.4v5.22h-1.22v-1.39h-.04c-.49.88-1.55,1.54-2.99,1.54-2.8,0-4.45-2.21-4.45-5.06s1.67-5.22,4.69-5.22c1.74,0,3.08.78,3.92,2.08l-1.07.68c-.59-1-1.54-1.63-2.84-1.63-2.15,0-3.36,1.7-3.36,4.05s1.22,3.97,3.32,3.97c1.68,0,2.77-1.02,2.77-2.71,0-.16,0-.3-.03-.42h-2.5v-1.11h3.8Z"/>
          <path class="cls-1" d="M192.19,76.13c0-2.03,1.25-3.64,3.44-3.64s3.42,1.64,3.42,3.64-1.22,3.63-3.42,3.63-3.44-1.61-3.44-3.63ZM193.44,76.13c0,1.38.73,2.58,2.17,2.58s2.19-1.2,2.19-2.58-.74-2.59-2.19-2.59-2.17,1.2-2.17,2.59Z"/>
          <path class="cls-1" d="M206.41,78.63c-.62.73-1.52,1.13-2.64,1.13-2.2,0-3.45-1.44-3.45-3.64s1.25-3.63,3.27-3.63,3.08,1.5,3.08,3.41c0,.21-.01.53-.04.72h-5.05c.13,1.33.9,2.1,2.2,2.1.77,0,1.35-.29,1.77-.85l.86.77ZM205.44,75.58c-.08-1.15-.65-2.06-1.89-2.06s-1.87.88-1.99,2.06h3.88Z"/>
          <path class="cls-1" d="M207.38,72.63h1.39v-2.21h1.24v2.21h1.68v1.03h-1.68v3.83c0,.83.22,1.21,1.13,1.21.23,0,.4-.03.55-.05v1c-.27.06-.59.12-.98.12-1.33,0-1.94-.73-1.94-1.96v-4.14h-1.39v-1.03Z"/>
          <path class="cls-1" d="M213.01,69.62h1.24v4.01h.03c.47-.72,1.25-1.15,2.25-1.15,1.51,0,2.46.98,2.46,2.45v4.69h-1.24v-4.44c0-.91-.53-1.63-1.59-1.63-1.17,0-1.91.81-1.91,1.9v4.16h-1.24v-9.99Z"/>
          <path class="cls-1" d="M226.71,78.63c-.62.73-1.52,1.13-2.64,1.13-2.2,0-3.45-1.44-3.45-3.64s1.25-3.63,3.27-3.63,3.08,1.5,3.08,3.41c0,.21-.01.53-.04.72h-5.05c.13,1.33.9,2.1,2.2,2.1.77,0,1.35-.29,1.77-.85l.86.77ZM225.75,75.58c-.08-1.15-.65-2.06-1.89-2.06s-1.87.88-1.99,2.06h3.88Z"/>
          <path class="cls-1" d="M238.68,69.62h1.28v6.55c0,2.19-1.5,3.59-3.98,3.59-2.28,0-3.94-1.34-3.94-3.59v-6.55h1.31v6.48c0,1.51,1.03,2.53,2.68,2.53s2.66-.96,2.66-2.53v-6.48Z"/>
          <path class="cls-1" d="M242.11,72.63h1.2l.03,1.03h.03c.44-.7,1.22-1.17,2.26-1.17,1.51,0,2.46.98,2.46,2.45v4.69h-1.24v-4.44c0-.91-.53-1.63-1.59-1.63-1.17,0-1.91.81-1.91,1.9v4.16h-1.24v-6.99Z"/>
          <path class="cls-1" d="M250.05,69.62h1.34v1.34h-1.34v-1.34ZM250.1,79.62v-6.99h1.24v6.99h-1.24Z"/>
          <path class="cls-1" d="M259.39,72.63l-2.76,6.99h-1.31l-2.75-6.99h1.35l2.06,5.57h.03l2.08-5.57h1.3Z"/>
          <path class="cls-1" d="M266.05,78.63c-.62.73-1.52,1.13-2.64,1.13-2.2,0-3.45-1.44-3.45-3.64s1.25-3.63,3.27-3.63,3.08,1.5,3.08,3.41c0,.21-.01.53-.04.72h-5.05c.13,1.33.9,2.1,2.2,2.1.77,0,1.35-.29,1.77-.85l.86.77ZM265.09,75.58c-.08-1.15-.65-2.06-1.89-2.06s-1.87.88-1.99,2.06h3.88Z"/>
          <path class="cls-1" d="M267.95,72.63h1.2l.03,1.05h.03c.47-.87,1.12-1.2,1.8-1.2.25,0,.43.04.59.09v1.21c-.12-.04-.36-.09-.65-.09-1.16,0-1.74.82-1.74,1.68v4.24h-1.24v-6.99Z"/>
          <path class="cls-1" d="M272.39,78.71l.76-.85c.61.59,1.38.86,2.21.86,1.11,0,1.64-.4,1.64-1,0-.66-.7-.82-1.87-1.07-1.31-.29-2.49-.69-2.49-2.04,0-1.2.94-2.12,2.76-2.12,1.12,0,1.99.34,2.72,1l-.74.85c-.6-.55-1.26-.81-2.02-.81-.98,0-1.47.42-1.47.95,0,.65.62.79,1.84,1.05,1.29.29,2.53.65,2.53,2.04,0,1.28-1.02,2.19-2.93,2.19-1.24,0-2.2-.36-2.93-1.05Z"/>
          <path class="cls-1" d="M279.76,69.62h1.34v1.34h-1.34v-1.34ZM279.81,79.62v-6.99h1.24v6.99h-1.24Z"/>
          <path class="cls-1" d="M282.27,72.63h1.39v-2.21h1.24v2.21h1.68v1.03h-1.68v3.83c0,.83.22,1.21,1.13,1.21.23,0,.4-.03.55-.05v1c-.27.06-.59.12-.98.12-1.33,0-1.94-.73-1.94-1.96v-4.14h-1.39v-1.03Z"/>
          <path class="cls-1" d="M294.31,72.63l-2.97,7.52c-.6,1.52-1.21,1.99-2.25,1.99-.36,0-.64-.07-.85-.14v-1c.16.05.34.09.59.09.69,0,1.11-.27,1.43-1.29l.03-.08-2.8-7.09h1.35l2.06,5.57h.03l2.08-5.57h1.3Z"/>
          <path class="cls-1" d="M299.06,79.62v-9.99h6.4v1.15h-5.09v3.38h4.45v1.13h-4.45v4.33h-1.31Z"/>
          <path class="cls-1" d="M306.55,72.63h1.2l.03,1.05h.03c.47-.87,1.12-1.2,1.8-1.2.25,0,.43.04.59.09v1.21c-.12-.04-.36-.09-.65-.09-1.16,0-1.74.82-1.74,1.68v4.24h-1.24v-6.99Z"/>
          <path class="cls-1" d="M315.57,79.62l-.03-1.02h-.03c-.39.69-1.11,1.16-2.11,1.16-1.37,0-2.25-.87-2.25-2.11,0-.91.47-1.52,1.35-1.81.77-.25,1.9-.3,3.05-.34v-.62c0-.72-.49-1.35-1.55-1.35-.88,0-1.39.42-1.61,1.05l-1.03-.49c.4-1.05,1.41-1.6,2.68-1.6,1.67,0,2.73.87,2.73,2.39v4.74h-1.21ZM315.55,76.86v-.4c-.47.01-1.2.07-1.78.14-.79.1-1.38.33-1.38,1.04,0,.65.49,1.08,1.3,1.08,1.13,0,1.86-.86,1.86-1.86Z"/>
          <path class="cls-1" d="M318.81,72.63h1.2l.03,1.03h.03c.44-.7,1.22-1.17,2.26-1.17,1.51,0,2.46.98,2.46,2.45v4.69h-1.24v-4.44c0-.91-.53-1.63-1.59-1.63-1.17,0-1.91.81-1.91,1.9v4.16h-1.24v-6.99Z"/>
          <path class="cls-1" d="M329.06,76.49h-1v3.12h-1.24v-9.99h1.24v5.84h1.07l1.93-2.84h1.47l-2.38,3.36,2.5,3.63h-1.5l-2.08-3.12Z"/>
          <path class="cls-1" d="M334.81,73.66h-1.39v-1.03h1.39v-1.17c0-1.29.77-1.98,2.1-1.98.31,0,.57.04.82.1v1.03c-.13-.04-.35-.07-.57-.07-.81,0-1.11.33-1.11,1.07v1.02h1.68v1.03h-1.68v5.96h-1.24v-5.96Z"/>
          <path class="cls-1" d="M344.97,79.62h-1.21v-1.03h-.04c-.46.69-1.25,1.17-2.26,1.17-1.51,0-2.46-.98-2.46-2.45v-4.68h1.24v4.44c0,.91.51,1.63,1.59,1.63,1.17,0,1.91-.81,1.91-1.9v-4.16h1.24v6.99Z"/>
          <path class="cls-1" d="M347.03,72.63h1.2l.03,1.05h.03c.47-.87,1.12-1.2,1.8-1.2.25,0,.43.04.59.09v1.21c-.12-.04-.36-.09-.65-.09-1.16,0-1.74.82-1.74,1.68v4.24h-1.24v-6.99Z"/>
          <path class="cls-1" d="M351.53,72.63h1.39v-2.21h1.24v2.21h1.68v1.03h-1.68v3.83c0,.83.22,1.21,1.13,1.21.23,0,.4-.03.55-.05v1c-.27.06-.59.12-.98.12-1.33,0-1.94-.73-1.94-1.96v-4.14h-1.39v-1.03Z"/>
          <path class="cls-1" d="M181.14,98.67l.59-.95c.38.3.83.48,1.35.48.99,0,1.41-.68,1.41-1.57v-7.48h1.31v7.5c0,1.57-1.03,2.64-2.71,2.64-.83,0-1.48-.27-1.95-.61Z"/>
          <path class="cls-1" d="M187.54,95.66c0-2.03,1.25-3.64,3.44-3.64s3.42,1.64,3.42,3.64-1.22,3.63-3.42,3.63-3.44-1.61-3.44-3.63ZM188.79,95.66c0,1.38.73,2.58,2.17,2.58s2.19-1.2,2.19-2.58-.74-2.59-2.19-2.59-2.17,1.2-2.17,2.59Z"/>
          <path class="cls-1" d="M196.05,89.15h1.24v4.01h.03c.47-.72,1.25-1.15,2.25-1.15,1.51,0,2.46.98,2.46,2.45v4.69h-1.24v-4.44c0-.91-.53-1.63-1.59-1.63-1.17,0-1.91.81-1.91,1.9v4.16h-1.24v-9.99Z"/>
          <path class="cls-1" d="M208.04,99.14l-.03-1.02h-.03c-.39.69-1.11,1.16-2.11,1.16-1.37,0-2.25-.87-2.25-2.11,0-.91.47-1.52,1.35-1.81.77-.25,1.9-.3,3.05-.34v-.62c0-.72-.49-1.35-1.55-1.35-.88,0-1.39.42-1.61,1.05l-1.03-.49c.4-1.05,1.41-1.6,2.68-1.6,1.67,0,2.73.87,2.73,2.39v4.74h-1.21ZM208.03,96.38v-.4c-.47.01-1.2.07-1.78.14-.79.1-1.38.33-1.38,1.04,0,.65.49,1.08,1.3,1.08,1.13,0,1.86-.86,1.86-1.86Z"/>
          <path class="cls-1" d="M211.29,92.15h1.2l.03,1.03h.03c.44-.7,1.22-1.17,2.26-1.17,1.51,0,2.46.98,2.46,2.45v4.69h-1.24v-4.44c0-.91-.53-1.63-1.59-1.63-1.17,0-1.91.81-1.91,1.9v4.16h-1.24v-6.99Z"/>
          <path class="cls-1" d="M219.3,92.15h1.2l.03,1.03h.03c.44-.7,1.22-1.17,2.26-1.17,1.51,0,2.46.98,2.46,2.45v4.69h-1.24v-4.44c0-.91-.53-1.63-1.59-1.63-1.17,0-1.91.81-1.91,1.9v4.16h-1.24v-6.99Z"/>
          <path class="cls-1" d="M232.99,98.15c-.62.73-1.52,1.13-2.64,1.13-2.2,0-3.45-1.44-3.45-3.64s1.25-3.63,3.27-3.63,3.08,1.5,3.08,3.41c0,.21-.01.53-.04.72h-5.05c.13,1.33.9,2.1,2.2,2.1.77,0,1.35-.29,1.77-.85l.86.77ZM232.03,95.11c-.08-1.15-.65-2.06-1.89-2.06s-1.87.88-1.99,2.06h3.88Z"/>
          <path class="cls-1" d="M234.23,98.23l.76-.85c.61.59,1.38.86,2.21.86,1.11,0,1.64-.4,1.64-1,0-.66-.7-.82-1.87-1.07-1.31-.29-2.49-.69-2.49-2.04,0-1.2.94-2.12,2.76-2.12,1.12,0,1.99.34,2.72,1l-.74.85c-.6-.55-1.26-.81-2.02-.81-.98,0-1.47.42-1.47.95,0,.65.62.79,1.84,1.05,1.29.29,2.53.65,2.53,2.04,0,1.28-1.02,2.19-2.93,2.19-1.24,0-2.2-.36-2.93-1.05Z"/>
          <path class="cls-1" d="M253.41,93.92v5.22h-1.22v-1.39h-.04c-.49.88-1.55,1.54-2.99,1.54-2.8,0-4.45-2.21-4.45-5.06s1.67-5.22,4.69-5.22c1.74,0,3.08.78,3.92,2.08l-1.07.68c-.59-1-1.54-1.63-2.84-1.63-2.15,0-3.36,1.7-3.36,4.05s1.22,3.97,3.32,3.97c1.68,0,2.77-1.02,2.77-2.71,0-.16,0-.3-.03-.42h-2.5v-1.11h3.8Z"/>
          <path class="cls-1" d="M261.45,99.14h-1.21v-1.03h-.04c-.46.69-1.25,1.17-2.26,1.17-1.51,0-2.46-.98-2.46-2.45v-4.68h1.24v4.44c0,.91.51,1.63,1.59,1.63,1.17,0,1.91-.81,1.91-1.9v-4.16h1.24v6.99Z"/>
          <path class="cls-1" d="M262.68,92.15h1.39v-2.21h1.24v2.21h1.68v1.03h-1.68v3.83c0,.83.22,1.21,1.13,1.21.23,0,.4-.03.55-.05v1c-.27.06-.59.12-.98.12-1.33,0-1.94-.73-1.94-1.96v-4.14h-1.39v-1.03Z"/>
          <path class="cls-1" d="M273.86,98.15c-.62.73-1.52,1.13-2.64,1.13-2.2,0-3.45-1.44-3.45-3.64s1.25-3.63,3.27-3.63,3.08,1.5,3.08,3.41c0,.21-.01.53-.04.72h-5.05c.13,1.33.9,2.1,2.2,2.1.77,0,1.35-.29,1.77-.85l.86.77ZM272.89,95.11c-.08-1.15-.65-2.06-1.89-2.06s-1.87.88-1.99,2.06h3.88Z"/>
          <path class="cls-1" d="M275.75,92.15h1.2l.03,1.03h.03c.44-.7,1.22-1.17,2.26-1.17,1.51,0,2.46.98,2.46,2.45v4.69h-1.24v-4.44c0-.91-.53-1.63-1.59-1.63-1.17,0-1.91.81-1.91,1.9v4.16h-1.24v-6.99Z"/>
          <path class="cls-1" d="M284.97,98.06h-.03l-.05,1.08h-1.13v-9.99h1.24v4.11h.03c.57-.82,1.39-1.25,2.37-1.25,1.95,0,3.08,1.63,3.08,3.62s-1.17,3.66-3.16,3.66c-1.02,0-1.82-.44-2.34-1.22ZM289.23,95.64c0-1.31-.68-2.55-2.15-2.55s-2.12,1.28-2.12,2.59.69,2.53,2.11,2.53,2.16-1.13,2.16-2.56Z"/>
          <path class="cls-1" d="M297.85,98.15c-.62.73-1.52,1.13-2.64,1.13-2.2,0-3.45-1.44-3.45-3.64s1.25-3.63,3.27-3.63,3.08,1.5,3.08,3.41c0,.21-.01.53-.04.72h-5.05c.13,1.33.9,2.1,2.2,2.1.77,0,1.35-.29,1.77-.85l.86.77ZM296.89,95.11c-.08-1.15-.65-2.06-1.89-2.06s-1.87.88-1.99,2.06h3.88Z"/>
          <path class="cls-1" d="M299.75,92.15h1.2l.03,1.05h.03c.47-.87,1.12-1.2,1.8-1.2.25,0,.43.04.59.09v1.21c-.12-.04-.36-.09-.65-.09-1.16,0-1.74.82-1.74,1.68v4.24h-1.24v-6.99Z"/>
          <path class="cls-1" d="M310.75,98.38c0,2.23-1.43,3.29-3.54,3.29-1.11,0-1.99-.31-2.62-.73l.56-.98c.51.34,1.12.65,2.04.65,1.3,0,2.33-.59,2.33-2.24v-.6h-.03c-.53.83-1.38,1.25-2.33,1.25-1.85,0-2.98-1.56-2.98-3.46s1.15-3.55,3.07-3.55c1.02,0,1.77.46,2.26,1.15h.03l.04-1h1.16v6.22ZM309.56,95.5c0-1.34-.74-2.41-2.06-2.41s-2.06,1.12-2.06,2.43.64,2.42,2.04,2.42,2.07-1.09,2.07-2.45Z"/>
          <path class="cls-1" d="M322.98,89.15h1.28v6.55c0,2.19-1.5,3.59-3.98,3.59-2.28,0-3.94-1.34-3.94-3.59v-6.55h1.31v6.48c0,1.51,1.03,2.53,2.68,2.53s2.66-.96,2.66-2.53v-6.48Z"/>
          <path class="cls-1" d="M326.4,92.15h1.2l.03,1.03h.03c.44-.7,1.22-1.17,2.26-1.17,1.51,0,2.46.98,2.46,2.45v4.69h-1.24v-4.44c0-.91-.53-1.63-1.59-1.63-1.17,0-1.91.81-1.91,1.9v4.16h-1.24v-6.99Z"/>
          <path class="cls-1" d="M334.34,89.15h1.34v1.34h-1.34v-1.34ZM334.39,99.14v-6.99h1.24v6.99h-1.24Z"/>
          <path class="cls-1" d="M343.69,92.15l-2.76,6.99h-1.31l-2.75-6.99h1.35l2.06,5.57h.03l2.08-5.57h1.3Z"/>
          <path class="cls-1" d="M350.34,98.15c-.62.73-1.52,1.13-2.64,1.13-2.2,0-3.45-1.44-3.45-3.64s1.25-3.63,3.27-3.63,3.08,1.5,3.08,3.41c0,.21-.01.53-.04.72h-5.05c.13,1.33.9,2.1,2.2,2.1.77,0,1.35-.29,1.77-.85l.86.77ZM349.38,95.11c-.08-1.15-.65-2.06-1.89-2.06s-1.87.88-1.99,2.06h3.88Z"/>
          <path class="cls-1" d="M352.24,92.15h1.2l.03,1.05h.03c.47-.87,1.12-1.2,1.8-1.2.25,0,.43.04.59.09v1.21c-.12-.04-.36-.09-.65-.09-1.16,0-1.74.82-1.74,1.68v4.24h-1.24v-6.99Z"/>
          <path class="cls-1" d="M356.68,98.23l.76-.85c.61.59,1.38.86,2.21.86,1.11,0,1.64-.4,1.64-1,0-.66-.7-.82-1.87-1.07-1.31-.29-2.49-.69-2.49-2.04,0-1.2.94-2.12,2.76-2.12,1.12,0,1.99.34,2.72,1l-.74.85c-.6-.55-1.26-.81-2.02-.81-.98,0-1.47.42-1.47.95,0,.65.62.79,1.84,1.05,1.29.29,2.53.65,2.53,2.04,0,1.28-1.02,2.19-2.93,2.19-1.24,0-2.2-.36-2.93-1.05Z"/>
          <path class="cls-1" d="M364.05,89.15h1.34v1.34h-1.34v-1.34ZM364.11,99.14v-6.99h1.24v6.99h-1.24Z"/>
          <path class="cls-1" d="M366.56,92.15h1.39v-2.21h1.24v2.21h1.68v1.03h-1.68v3.83c0,.83.22,1.21,1.13,1.21.23,0,.4-.03.55-.05v1c-.27.06-.59.12-.98.12-1.33,0-1.94-.73-1.94-1.96v-4.14h-1.39v-1.03Z"/>
          <path class="cls-1" d="M378.6,92.15l-2.97,7.52c-.6,1.52-1.21,1.99-2.25,1.99-.36,0-.64-.07-.85-.14v-1c.16.05.34.09.59.09.69,0,1.11-.27,1.43-1.29l.03-.08-2.8-7.09h1.35l2.06,5.57h.03l2.08-5.57h1.3Z"/>
          <path class="cls-1" d="M393.41,89.15v9.99h-1.3v-8.11h-.03l-3.11,8.11h-1.21l-3.11-8.11h-.03v8.11h-1.28v-9.99h1.89l3.14,8.3h.03l3.15-8.3h1.86Z"/>
          <path class="cls-1" d="M399.66,99.14l-.03-1.02h-.03c-.39.69-1.11,1.16-2.11,1.16-1.37,0-2.25-.87-2.25-2.11,0-.91.47-1.52,1.35-1.81.77-.25,1.9-.3,3.05-.34v-.62c0-.72-.49-1.35-1.55-1.35-.88,0-1.39.42-1.61,1.05l-1.03-.49c.4-1.05,1.41-1.6,2.68-1.6,1.67,0,2.73.87,2.73,2.39v4.74h-1.21ZM399.65,96.38v-.4c-.47.01-1.2.07-1.78.14-.79.1-1.38.33-1.38,1.04,0,.65.49,1.08,1.3,1.08,1.13,0,1.86-.86,1.86-1.86Z"/>
          <path class="cls-1" d="M402.84,89.15h1.34v1.34h-1.34v-1.34ZM402.89,99.14v-6.99h1.24v6.99h-1.24Z"/>
          <path class="cls-1" d="M406.17,92.15h1.2l.03,1.03h.03c.44-.7,1.22-1.17,2.26-1.17,1.51,0,2.46.98,2.46,2.45v4.69h-1.24v-4.44c0-.91-.53-1.63-1.59-1.63-1.17,0-1.91.81-1.91,1.9v4.16h-1.24v-6.99Z"/>
          <path class="cls-1" d="M413.65,92.15h5.39v1.02l-3.98,4.89h4.13v1.08h-5.65v-1.02l3.98-4.89h-3.87v-1.08Z"/>
          <path class="cls-1" d="M184.76,118.67v-8.85h-3.46v-1.15h8.24v1.15h-3.46v8.85h-1.31Z"/>
          <path class="cls-1" d="M195.15,117.68c-.62.73-1.52,1.13-2.64,1.13-2.2,0-3.45-1.44-3.45-3.64s1.25-3.63,3.27-3.63,3.08,1.5,3.08,3.41c0,.21-.01.53-.04.72h-5.05c.13,1.33.9,2.1,2.2,2.1.77,0,1.35-.29,1.77-.85l.86.77ZM194.19,114.63c-.08-1.15-.65-2.06-1.89-2.06s-1.87.88-1.99,2.06h3.88Z"/>
          <path class="cls-1" d="M196.62,115.21c0-2.07,1.24-3.67,3.38-3.67,1.33,0,2.26.64,2.8,1.64l-1.03.59c-.35-.68-.91-1.17-1.8-1.17-1.37,0-2.11,1.15-2.11,2.59s.72,2.58,2.19,2.58c.92,0,1.48-.47,1.82-1.13l.98.56c-.49.98-1.48,1.63-2.84,1.63-2.15,0-3.4-1.55-3.4-3.6Z"/>
          <path class="cls-1" d="M204.17,108.67h1.24v4.01h.03c.47-.72,1.25-1.15,2.25-1.15,1.51,0,2.46.98,2.46,2.45v4.69h-1.24v-4.44c0-.91-.53-1.63-1.59-1.63-1.17,0-1.91.81-1.91,1.9v4.16h-1.24v-9.99Z"/>
          <path class="cls-1" d="M212.18,111.68h1.2l.03,1.03h.03c.44-.7,1.22-1.17,2.26-1.17,1.51,0,2.46.98,2.46,2.45v4.69h-1.24v-4.44c0-.91-.53-1.63-1.59-1.63-1.17,0-1.91.81-1.91,1.9v4.16h-1.24v-6.99Z"/>
          <path class="cls-1" d="M220.11,108.67h1.34v1.34h-1.34v-1.34ZM220.17,118.67v-6.99h1.24v6.99h-1.24Z"/>
          <path class="cls-1" d="M223.04,115.21c0-2.07,1.24-3.67,3.38-3.67,1.33,0,2.26.64,2.8,1.64l-1.03.59c-.35-.68-.91-1.17-1.8-1.17-1.37,0-2.11,1.15-2.11,2.59s.72,2.58,2.19,2.58c.92,0,1.48-.47,1.82-1.13l.98.56c-.49.98-1.48,1.63-2.84,1.63-2.15,0-3.4-1.55-3.4-3.6Z"/>
          <path class="cls-1" d="M234.74,118.67l-.03-1.02h-.03c-.39.69-1.11,1.16-2.11,1.16-1.37,0-2.25-.87-2.25-2.11,0-.91.47-1.52,1.35-1.81.77-.25,1.9-.3,3.05-.34v-.62c0-.72-.49-1.35-1.55-1.35-.88,0-1.39.42-1.61,1.05l-1.03-.49c.4-1.05,1.41-1.6,2.68-1.6,1.67,0,2.73.87,2.73,2.39v4.74h-1.21ZM234.73,115.91v-.4c-.47.01-1.2.07-1.78.14-.79.1-1.38.33-1.38,1.04,0,.65.49,1.08,1.3,1.08,1.13,0,1.86-.86,1.86-1.86Z"/>
          <path class="cls-1" d="M237.99,118.67v-9.99h1.24v9.99h-1.24Z"/>
          <path class="cls-1" d="M251.45,108.67h1.28v6.55c0,2.19-1.5,3.59-3.98,3.59-2.28,0-3.94-1.34-3.94-3.59v-6.55h1.31v6.48c0,1.51,1.03,2.53,2.68,2.53s2.66-.96,2.66-2.53v-6.48Z"/>
          <path class="cls-1" d="M254.87,111.68h1.2l.03,1.03h.03c.44-.7,1.22-1.17,2.26-1.17,1.51,0,2.46.98,2.46,2.45v4.69h-1.24v-4.44c0-.91-.53-1.63-1.59-1.63-1.17,0-1.91.81-1.91,1.9v4.16h-1.24v-6.99Z"/>
          <path class="cls-1" d="M262.81,108.67h1.34v1.34h-1.34v-1.34ZM262.86,118.67v-6.99h1.24v6.99h-1.24Z"/>
          <path class="cls-1" d="M272.16,111.68l-2.76,6.99h-1.31l-2.75-6.99h1.35l2.06,5.57h.03l2.08-5.57h1.3Z"/>
          <path class="cls-1" d="M278.82,117.68c-.62.73-1.52,1.13-2.64,1.13-2.2,0-3.45-1.44-3.45-3.64s1.25-3.63,3.27-3.63,3.08,1.5,3.08,3.41c0,.21-.01.53-.04.72h-5.05c.13,1.33.9,2.1,2.2,2.1.77,0,1.35-.29,1.77-.85l.86.77ZM277.85,114.63c-.08-1.15-.65-2.06-1.89-2.06s-1.87.88-1.99,2.06h3.88Z"/>
          <path class="cls-1" d="M280.72,111.68h1.2l.03,1.05h.03c.47-.87,1.12-1.2,1.8-1.2.25,0,.43.04.59.09v1.21c-.12-.04-.36-.09-.65-.09-1.16,0-1.74.82-1.74,1.68v4.24h-1.24v-6.99Z"/>
          <path class="cls-1" d="M285.15,117.76l.76-.85c.61.59,1.38.86,2.21.86,1.11,0,1.64-.4,1.64-1,0-.66-.7-.82-1.87-1.07-1.31-.29-2.49-.69-2.49-2.04,0-1.2.94-2.12,2.76-2.12,1.12,0,1.99.34,2.72,1l-.74.85c-.6-.55-1.26-.81-2.02-.81-.98,0-1.47.42-1.47.95,0,.65.62.79,1.84,1.05,1.29.29,2.53.65,2.53,2.04,0,1.28-1.02,2.19-2.93,2.19-1.24,0-2.2-.36-2.93-1.05Z"/>
          <path class="cls-1" d="M292.53,108.67h1.34v1.34h-1.34v-1.34ZM292.58,118.67v-6.99h1.24v6.99h-1.24Z"/>
          <path class="cls-1" d="M295.04,111.68h1.39v-2.21h1.24v2.21h1.68v1.03h-1.68v3.83c0,.83.22,1.21,1.13,1.21.23,0,.4-.03.55-.05v1c-.27.06-.59.12-.98.12-1.33,0-1.94-.73-1.94-1.96v-4.14h-1.39v-1.03Z"/>
          <path class="cls-1" d="M307.07,111.68l-2.97,7.52c-.6,1.52-1.21,1.99-2.25,1.99-.36,0-.64-.07-.85-.14v-1c.16.05.34.09.59.09.69,0,1.11-.27,1.43-1.29l.03-.08-2.8-7.09h1.35l2.06,5.57h.03l2.08-5.57h1.3Z"/>
          <path class="cls-1" d="M311.26,115.18c0-2.03,1.25-3.64,3.44-3.64s3.42,1.64,3.42,3.64-1.22,3.63-3.42,3.63-3.44-1.61-3.44-3.63ZM312.51,115.18c0,1.38.73,2.58,2.17,2.58s2.19-1.2,2.19-2.58-.74-2.59-2.19-2.59-2.17,1.2-2.17,2.59Z"/>
          <path class="cls-1" d="M320.22,112.71h-1.39v-1.03h1.39v-1.17c0-1.29.77-1.98,2.1-1.98.31,0,.57.04.82.1v1.03c-.13-.04-.35-.07-.57-.07-.81,0-1.11.33-1.11,1.07v1.02h1.68v1.03h-1.68v5.96h-1.24v-5.96Z"/>
          <path class="cls-1" d="M327.97,108.67h3.36c3.37,0,5.04,2.25,5.04,5,0,2.99-1.93,5-4.92,5h-3.47v-9.99ZM331.36,117.52c2.17,0,3.66-1.26,3.66-3.84s-1.67-3.87-3.77-3.87h-1.97v7.7h2.08Z"/>
          <path class="cls-1" d="M342.01,118.67l-.03-1.02h-.03c-.39.69-1.11,1.16-2.11,1.16-1.37,0-2.25-.87-2.25-2.11,0-.91.47-1.52,1.35-1.81.77-.25,1.9-.3,3.05-.34v-.62c0-.72-.49-1.35-1.55-1.35-.88,0-1.39.42-1.61,1.05l-1.03-.49c.4-1.05,1.41-1.6,2.68-1.6,1.67,0,2.73.87,2.73,2.39v4.74h-1.21ZM342,115.91v-.4c-.47.01-1.2.07-1.78.14-.79.1-1.38.33-1.38,1.04,0,.65.49,1.08,1.3,1.08,1.13,0,1.86-.86,1.86-1.86Z"/>
          <path class="cls-1" d="M345.25,111.68h1.2l.03,1.05h.03c.47-.87,1.12-1.2,1.8-1.2.25,0,.43.04.59.09v1.21c-.12-.04-.36-.09-.65-.09-1.16,0-1.74.82-1.74,1.68v4.24h-1.24v-6.99Z"/>
          <path class="cls-1" d="M351.44,112.62c.43-.66,1.09-1.08,2.06-1.08s1.76.46,2.11,1.2c.51-.82,1.31-1.2,2.26-1.2,1.41,0,2.33.88,2.33,2.21v4.92h-1.24v-4.63c0-.81-.47-1.43-1.44-1.43-1.04,0-1.71.7-1.71,1.67v4.4h-1.24v-4.63c0-.81-.48-1.43-1.43-1.43-1.04,0-1.72.7-1.72,1.67v4.4h-1.24v-6.99h1.2l.03.94h.03Z"/>
          <path class="cls-1" d="M361.62,117.76l.76-.85c.61.59,1.38.86,2.21.86,1.11,0,1.64-.4,1.64-1,0-.66-.7-.82-1.87-1.07-1.31-.29-2.49-.69-2.49-2.04,0-1.2.94-2.12,2.76-2.12,1.12,0,1.99.34,2.72,1l-.74.85c-.6-.55-1.26-.81-2.02-.81-.98,0-1.47.42-1.47.95,0,.65.62.79,1.84,1.05,1.29.29,2.53.65,2.53,2.04,0,1.28-1.02,2.19-2.93,2.19-1.24,0-2.2-.36-2.93-1.05Z"/>
          <path class="cls-1" d="M368.37,111.68h1.39v-2.21h1.24v2.21h1.68v1.03h-1.68v3.83c0,.83.22,1.21,1.13,1.21.23,0,.4-.03.55-.05v1c-.27.06-.59.12-.98.12-1.33,0-1.94-.73-1.94-1.96v-4.14h-1.39v-1.03Z"/>
          <path class="cls-1" d="M378.16,118.67l-.03-1.02h-.03c-.39.69-1.11,1.16-2.11,1.16-1.37,0-2.25-.87-2.25-2.11,0-.91.47-1.52,1.35-1.81.77-.25,1.9-.3,3.05-.34v-.62c0-.72-.49-1.35-1.55-1.35-.88,0-1.39.42-1.61,1.05l-1.03-.49c.4-1.05,1.41-1.6,2.68-1.6,1.67,0,2.73.87,2.73,2.39v4.74h-1.21ZM378.14,115.91v-.4c-.47.01-1.2.07-1.78.14-.79.1-1.38.33-1.38,1.04,0,.65.49,1.08,1.3,1.08,1.13,0,1.86-.86,1.86-1.86Z"/>
          <path class="cls-1" d="M381.02,115.23c0-2.06,1.21-3.7,3.18-3.7.92,0,1.73.4,2.28,1.16h.03v-4.02h1.24v9.99h-1.21v-1.13h-.04c-.59.85-1.42,1.28-2.36,1.28-1.97,0-3.11-1.63-3.11-3.58ZM386.53,115.17c0-1.54-.81-2.55-2.15-2.55-1.46,0-2.12,1.24-2.12,2.58s.66,2.54,2.08,2.54,2.19-1.08,2.19-2.56Z"/>
          <path class="cls-1" d="M388.97,111.68h1.39v-2.21h1.24v2.21h1.68v1.03h-1.68v3.83c0,.83.22,1.21,1.13,1.21.23,0,.4-.03.55-.05v1c-.27.06-.59.12-.98.12-1.33,0-1.94-.73-1.94-1.96v-4.14h-1.39v-1.03Z"/>
        </g>
      </g>
      <g>
        <polygon class="cls-1" points="203.62 10.41 211.43 10.41 211.43 17.84 214.96 17.84 214.96 0 211.43 0 211.43 7.26 203.62 7.26 203.62 0 200.09 0 200.09 17.84 203.62 17.84 203.62 10.41"/>
        <polygon class="cls-1" points="259.93 14.79 252.3 14.79 252.3 10.23 259.23 10.23 259.23 7.28 252.3 7.28 252.3 3.05 259.93 3.05 259.58 0 248.77 0 248.77 17.84 259.58 17.84 259.93 14.79"/>
        <path class="cls-1" d="M194.14,39.16c0,3.45-1.18,4.84-3.93,4.84s-3.96-1.39-3.96-4.81v-10.21h-3.53v10.51c0,5.14,2.37,7.81,7.48,7.81s7.46-2.82,7.46-7.81v-10.51h-3.53v10.18Z"/>
        <path class="cls-1" d="M186.42,10.76h1.99l4.81,7.08h3.68l.18-.43-5.14-7.21c2.14-.76,3.33-2.39,3.33-4.71C195.27,1.81,193.03,0,188.82,0h-5.97v17.84h3.58v-7.08ZM186.42,2.92h2.02c2.27,0,3.35.71,3.35,2.57,0,1.74-1.06,2.47-3.35,2.47h-2.02V2.92Z"/>
        <path class="cls-1" d="M331.9,10.33c0-1.69-.03-2.92-.18-4.49h.05c1.18,1.56,2.17,2.8,3.15,3.98l6.69,8.01h2.68V0h-3.53v7.06c0,1.69.02,2.9.2,4.49h-.08c-1.16-1.59-2.12-2.77-3.07-3.98L331.62,0h-3.23v17.84h3.5s0-7.51,0-7.51Z"/>
        <rect class="cls-1" x="319.88" width="3.53" height="17.84"/>
        <rect class="cls-1" x="298.99" y="28.98" width="3.53" height="17.84"/>
        <rect class="cls-1" x="323.9" y="28.98" width="3.53" height="17.84"/>
        <path class="cls-1" d="M312.81,17.84h4.06L309.74,0h-3.8l-7.21,17.84h4.06l1.36-3.78h7.28l1.39,3.78ZM305.15,11.31l1.51-4.21c.4-1.11.78-2.32,1.06-3.58h.1c.28,1.26.65,2.47,1.06,3.58l1.54,4.21h-5.27Z"/>
        <polygon class="cls-1" points="320.74 28.98 305.67 28.98 305.67 32.18 311.42 32.18 311.42 46.82 315 46.82 315 32.18 320.74 32.18 320.74 28.98"/>
        <polygon class="cls-1" points="343.64 32.03 343.29 28.98 332.48 28.98 332.48 46.82 343.29 46.82 343.64 43.77 336.01 43.77 336.01 39.21 342.94 39.21 342.94 36.26 336.01 36.26 336.01 32.03 343.64 32.03"/>
        <rect class="cls-1" x="223.5" y="28.98" width="3.53" height="17.84"/>
        <polygon class="cls-1" points="261.82 32.03 261.47 28.98 250.66 28.98 250.66 46.82 261.47 46.82 261.82 43.77 254.19 43.77 254.19 39.21 261.12 39.21 261.12 36.26 254.19 36.26 254.19 32.03 261.82 32.03"/>
        <polygon class="cls-1" points="286.16 10.36 286.11 10.36 281 0 276.54 0 276.54 17.84 280.02 17.84 279.97 4.49 280.02 4.49 285.89 16.05 286.34 16.05 292.24 4.49 292.29 4.49 292.24 17.84 295.69 17.84 295.69 0 291.25 0 286.16 10.36"/>
        <path class="cls-1" d="M239.95,38.93c-.35.96-.73,2.04-1.03,3.33h-.13c-.3-1.29-.71-2.42-1.03-3.38l-3.6-9.9h-4.06l7.23,18.07h3.02l7.21-18.07h-4.06l-3.55,9.95Z"/>
        <path class="cls-1" d="M290.08,36.24c-3.17-1.39-3.68-1.94-3.68-2.92,0-1.06.83-1.81,2.29-1.81,1.36,0,2.29.63,3,1.69l.45.1,2.42-1.76c-1.23-1.92-3.22-3.02-5.87-3.02-3.58,0-5.95,2.12-5.95,4.84,0,2.47,1.26,4.03,4.76,5.49,3.1,1.31,3.78,2.07,3.78,3.28s-1.08,2.19-2.67,2.19-2.7-.71-3.65-2.29l-.45-.13-2.44,1.71c1.51,2.54,3.7,3.7,6.58,3.7,3.68,0,6.3-2.39,6.3-5.44,0-2.39-1.13-3.96-4.86-5.62Z"/>
        <path class="cls-1" d="M354.49,36.24c-3.17-1.39-3.68-1.94-3.68-2.92,0-1.06.83-1.81,2.29-1.81,1.36,0,2.29.63,3,1.69l.45.1,2.42-1.76c-1.23-1.92-3.22-3.02-5.87-3.02-3.58,0-5.95,2.12-5.95,4.84,0,2.47,1.26,4.03,4.76,5.49,3.1,1.31,3.78,2.07,3.78,3.28s-1.08,2.19-2.67,2.19-2.7-.71-3.65-2.29l-.45-.13-2.44,1.71c1.51,2.54,3.7,3.7,6.58,3.7,3.68,0,6.3-2.39,6.3-5.44,0-2.39-1.13-3.96-4.86-5.62Z"/>
        <path class="cls-1" d="M278.64,34.47c0-3.68-2.24-5.49-6.45-5.49h-5.97v17.84h3.58v-7.08h1.99l4.81,7.08h3.68l.18-.43-5.14-7.21c2.14-.76,3.33-2.39,3.33-4.71ZM271.81,36.94h-2.02v-5.04h2.02c2.27,0,3.35.71,3.35,2.57,0,1.74-1.06,2.47-3.35,2.47Z"/>
        <rect class="cls-1" x="264.14" y="7.86" width="8.62" height="3.11"/>
        <path class="cls-1" d="M206.08,39.31c0-1.69-.03-2.92-.18-4.49h.05c1.18,1.56,2.17,2.8,3.15,3.98l6.69,8.01h2.68v-17.84h-3.53v7.06c0,1.69.02,2.9.2,4.49h-.08c-1.16-1.59-2.12-2.77-3.07-3.98l-6.2-7.56h-3.23v17.84h3.5s0-7.51,0-7.51Z"/>
        <rect class="cls-1" x="220.26" width="3.53" height="17.84"/>
        <path class="cls-1" d="M232.27,10.33c0-1.69-.03-2.92-.18-4.49h.05c1.18,1.56,2.17,2.8,3.15,3.98l6.69,8.01h2.68V0h-3.53v7.06c0,1.69.02,2.9.2,4.49h-.08c-1.16-1.59-2.12-2.77-3.07-3.98L231.99,0h-3.23v17.84h3.5s0-7.51,0-7.51Z"/>
      </g>
    </g>
  </g>
</svg>